{"glyphs":{"0":{"ha":878,"x_min":0,"x_max":0,"o":"m 439 -14 b 767 493 668 -14 767 139 b 439 1000 767 847 668 1000 b 111 493 210 1000 111 847 b 439 -14 111 139 210 -14 z m 439 6 b 133 493 225 6 133 151 b 439 981 133 835 225 981 b 744 493 653 981 744 835 b 439 6 744 151 653 6 z "},"1":{"ha":514,"x_min":0,"x_max":0,"o":"m 282 986 b 42 865 224 925 128 876 l 42 846 b 278 953 133 857 228 900 l 278 0 l 299 0 l 299 986 z "},"2":{"ha":746,"x_min":0,"x_max":0,"o":"m 121 18 b 649 736 383 243 649 521 b 369 1000 649 911 554 1000 b 90 722 185 1000 90 906 l 113 722 b 369 981 113 893 200 981 b 626 736 539 981 626 899 b 90 18 626 521 367 258 l 90 0 l 663 0 l 663 18 z "},"3":{"ha":781,"x_min":0,"x_max":0,"o":"m 390 -14 b 690 253 589 -14 690 76 b 483 510 690 396 621 483 b 669 750 607 538 669 618 b 390 1000 669 915 575 1000 b 111 722 206 1000 111 906 l 133 722 b 390 981 133 893 221 981 b 647 750 560 981 647 903 b 390 519 647 597 560 519 l 283 519 l 283 500 l 390 500 b 668 253 574 500 668 415 b 390 6 668 90 574 6 b 113 281 207 6 113 100 l 90 281 b 390 -14 90 86 192 -14 z "},"4":{"ha":764,"x_min":0,"x_max":0,"o":"m 549 0 l 569 0 l 569 276 l 750 276 l 750 294 l 569 294 l 569 1000 l 549 1000 l 28 297 l 28 276 l 549 276 z m 50 294 l 549 968 l 549 294 z "},"5":{"ha":843,"x_min":0,"x_max":0,"o":"m 443 619 b 168 506 311 619 215 579 l 201 968 l 690 968 l 690 986 l 181 986 l 144 475 l 165 475 b 443 601 214 558 307 601 b 739 303 639 601 739 500 b 443 4 739 106 639 4 b 153 247 251 4 153 86 l 132 247 b 443 -14 132 75 238 -14 b 760 303 651 -14 760 93 b 443 619 760 511 653 619 z "},"6":{"ha":815,"x_min":0,"x_max":0,"o":"m 414 -14 b 718 289 615 -14 718 89 b 414 592 718 489 615 592 b 132 425 267 592 171 536 b 435 982 142 849 214 982 b 697 697 608 982 697 885 l 718 697 b 435 1000 718 897 622 1000 b 111 344 189 1000 111 843 b 414 -14 111 101 208 -14 z m 414 4 b 132 344 222 4 132 113 b 414 574 132 476 228 574 b 697 289 601 574 697 476 b 414 4 697 101 601 4 z "},"7":{"ha":664,"x_min":0,"x_max":0,"o":"m 206 0 l 226 0 b 622 968 296 322 428 646 l 622 986 l 42 986 l 42 968 l 600 968 b 206 0 406 646 275 322 z "},"8":{"ha":794,"x_min":0,"x_max":0,"o":"m 397 -14 b 697 253 596 -14 697 76 b 490 510 697 396 628 483 b 676 750 614 538 676 618 b 397 1000 676 915 582 1000 b 118 750 213 1000 118 915 b 304 510 118 618 181 538 b 97 253 167 483 97 396 b 397 -14 97 76 199 -14 z m 397 519 b 140 750 228 519 140 597 b 397 981 140 903 228 981 b 654 750 567 981 654 903 b 397 519 654 597 567 519 z m 397 6 b 119 253 214 6 119 90 b 397 500 119 415 214 500 b 675 253 581 500 675 415 b 397 6 675 90 581 6 z "},"9":{"ha":829,"x_min":0,"x_max":0,"o":"m 394 -14 b 718 642 654 -14 718 136 b 415 1000 718 885 621 1000 b 111 697 214 1000 111 897 b 415 394 111 497 214 394 b 697 561 563 394 658 450 b 394 4 688 138 629 4 b 132 289 221 4 132 101 l 111 289 b 394 -14 111 89 207 -14 z m 415 413 b 132 697 228 413 132 510 b 415 982 132 885 228 982 b 697 642 607 982 697 874 b 415 413 697 510 601 413 z "},"A":{"ha":874,"x_min":0,"x_max":0,"o":"m 789 0 l 811 0 l 450 986 l 422 986 l 63 0 l 85 0 l 199 313 l 675 313 z m 204 331 l 436 968 l 668 331 z "},"Á":{"ha":874,"x_min":0,"x_max":0,"o":"m 572 1306 l 544 1306 l 385 1143 l 407 1143 z m 789 0 l 811 0 l 450 986 l 422 986 l 63 0 l 85 0 l 199 313 l 675 313 z m 204 331 l 436 968 l 668 331 z "},"Ă":{"ha":874,"x_min":0,"x_max":0,"o":"m 438 1136 b 611 1306 546 1136 611 1200 l 594 1306 b 438 1154 594 1211 535 1154 b 282 1306 342 1154 282 1211 l 264 1306 b 438 1136 264 1200 329 1136 z m 789 0 l 811 0 l 450 986 l 422 986 l 63 0 l 85 0 l 199 313 l 675 313 z m 204 331 l 436 968 l 668 331 z "},"Â":{"ha":874,"x_min":0,"x_max":0,"o":"m 438 1292 l 589 1143 l 611 1143 l 444 1313 l 431 1313 l 264 1143 l 286 1143 z m 789 0 l 811 0 l 450 986 l 422 986 l 63 0 l 85 0 l 199 313 l 675 313 z m 204 331 l 436 968 l 668 331 z "},"Ä":{"ha":874,"x_min":0,"x_max":0,"o":"m 338 1306 l 315 1306 l 315 1143 l 338 1143 z m 560 1306 l 538 1306 l 538 1143 l 560 1143 z m 789 0 l 811 0 l 450 986 l 422 986 l 63 0 l 85 0 l 199 313 l 675 313 z m 204 331 l 436 968 l 668 331 z "},"À":{"ha":874,"x_min":0,"x_max":0,"o":"m 496 1143 l 336 1306 l 308 1306 l 474 1143 z m 789 0 l 811 0 l 450 986 l 422 986 l 63 0 l 85 0 l 199 313 l 675 313 z m 204 331 l 436 968 l 668 331 z "},"Ā":{"ha":874,"x_min":0,"x_max":0,"o":"m 632 1232 l 242 1232 l 242 1217 l 632 1217 z m 789 0 l 811 0 l 450 986 l 422 986 l 63 0 l 85 0 l 199 313 l 675 313 z m 204 331 l 436 968 l 668 331 z "},"Ą":{"ha":874,"x_min":0,"x_max":0,"o":"m 736 -232 b 642 -156 679 -232 642 -201 b 811 0 642 -83 710 -21 l 806 15 l 450 986 l 422 986 l 63 0 l 85 0 l 199 313 l 675 313 l 785 11 b 621 -157 686 -14 621 -81 b 738 -250 621 -212 668 -250 b 839 -222 772 -250 813 -239 l 839 -207 b 736 -232 811 -222 771 -232 z m 204 331 l 436 968 l 668 331 z "},"Å":{"ha":874,"x_min":0,"x_max":0,"o":"m 438 1075 b 578 1217 522 1075 578 1132 b 438 1357 578 1301 522 1357 b 296 1217 353 1357 296 1301 b 438 1075 296 1132 353 1075 z m 438 1340 b 557 1217 508 1340 557 1290 b 438 1093 557 1143 508 1094 b 317 1217 365 1094 317 1143 b 438 1340 317 1290 365 1340 z m 789 0 l 811 0 l 450 986 l 422 986 l 63 0 l 85 0 l 199 313 l 675 313 z m 204 331 l 436 968 l 668 331 z "},"Ã":{"ha":874,"x_min":0,"x_max":0,"o":"m 349 1243 b 522 1189 411 1243 451 1189 b 618 1260 572 1189 611 1217 l 603 1260 b 526 1206 596 1228 565 1206 b 351 1260 464 1206 422 1260 b 256 1189 301 1260 263 1232 l 271 1189 b 349 1243 278 1221 310 1243 z m 789 0 l 811 0 l 450 986 l 422 986 l 63 0 l 85 0 l 199 313 l 675 313 z m 204 331 l 436 968 l 668 331 z "},"Æ":{"ha":1340,"x_min":0,"x_max":0,"o":"m 694 18 l 694 499 l 1174 499 l 1174 517 l 694 517 l 694 968 l 1215 968 l 1215 986 l 661 986 l 63 0 l 86 0 l 276 313 l 674 313 l 674 0 l 1229 0 l 1229 18 z m 286 331 l 674 968 l 674 331 z "},"B":{"ha":906,"x_min":0,"x_max":0,"o":"m 614 508 b 774 726 725 535 774 607 b 428 986 774 908 669 986 l 194 986 l 194 0 l 456 0 b 801 275 697 0 801 82 b 614 508 801 407 744 485 z m 751 726 b 511 515 750 579 678 515 l 215 515 l 215 968 l 428 968 b 751 726 656 968 753 896 z m 442 18 l 208 18 l 215 63 l 215 497 l 511 497 b 779 275 699 497 779 431 b 442 18 779 96 678 18 z "},"C":{"ha":1036,"x_min":0,"x_max":0,"o":"m 539 -14 b 932 311 764 -14 899 97 l 910 311 b 539 6 875 110 749 6 b 133 493 288 6 133 190 b 546 981 133 825 265 981 b 903 674 749 981 869 876 l 925 674 b 546 1000 890 889 763 1000 b 111 493 250 1000 111 838 b 539 -14 111 179 274 -14 z "},"Ć":{"ha":1036,"x_min":0,"x_max":0,"o":"m 451 1143 l 474 1143 l 639 1306 l 611 1306 z m 539 -14 b 932 311 764 -14 899 97 l 910 311 b 539 6 875 110 749 6 b 133 493 288 6 133 190 b 546 981 133 825 265 981 b 903 674 749 981 869 876 l 925 674 b 546 1000 890 889 763 1000 b 111 493 250 1000 111 838 b 539 -14 111 179 274 -14 z "},"Č":{"ha":1036,"x_min":0,"x_max":0,"o":"m 497 1143 l 511 1143 l 678 1313 l 656 1313 l 504 1164 l 353 1313 l 331 1313 z m 539 -14 b 932 311 764 -14 899 97 l 910 311 b 539 6 875 110 749 6 b 133 493 288 6 133 190 b 546 981 133 825 265 981 b 903 674 749 981 869 876 l 925 674 b 546 1000 890 889 763 1000 b 111 493 250 1000 111 838 b 539 -14 111 179 274 -14 z "},"Ç":{"ha":1036,"x_min":0,"x_max":0,"o":"m 539 -14 b 932 311 764 -14 899 97 l 910 311 b 539 6 875 110 749 6 b 133 493 288 6 133 190 b 546 981 133 825 265 981 b 903 674 749 981 869 876 l 925 674 b 546 1000 890 889 763 1000 b 111 493 250 1000 111 838 b 489 -11 111 200 253 11 l 456 -82 l 463 -92 b 597 -183 551 -99 597 -131 b 497 -260 597 -235 553 -260 b 371 -207 453 -260 404 -242 l 363 -222 b 496 -278 393 -258 446 -278 b 618 -182 560 -278 618 -249 b 479 -75 618 -122 572 -86 l 510 -12 b 539 -14 519 -14 529 -14 z "},"Ċ":{"ha":1036,"x_min":0,"x_max":0,"o":"m 493 1143 l 515 1143 l 515 1306 l 493 1306 z m 539 -14 b 932 311 764 -14 899 97 l 910 311 b 539 6 875 110 749 6 b 133 493 288 6 133 190 b 546 981 133 825 265 981 b 903 674 749 981 869 876 l 925 674 b 546 1000 890 889 763 1000 b 111 493 250 1000 111 838 b 539 -14 111 179 274 -14 z "},"D":{"ha":1010,"x_min":0,"x_max":0,"o":"m 474 986 l 194 986 l 194 0 l 213 0 l 215 -3 l 215 0 l 474 0 b 899 493 754 0 899 168 b 474 986 899 818 754 986 z m 474 18 l 215 18 l 215 968 l 474 968 b 876 493 740 968 876 807 b 474 18 876 179 740 18 z "},"Ð":{"ha":1017,"x_min":0,"x_max":0,"o":"m 474 986 l 194 986 l 194 507 l -21 507 l -21 492 l 194 492 l 194 0 l 213 0 l 215 -3 l 215 0 l 474 0 b 899 493 754 0 899 168 b 474 986 899 818 754 986 z m 474 18 l 215 18 l 215 492 l 536 492 l 536 507 l 215 507 l 215 968 l 474 968 b 876 493 740 968 876 807 b 474 18 876 179 740 18 z "},"Ď":{"ha":1010,"x_min":0,"x_max":0,"o":"m 515 1143 l 682 1313 l 660 1313 l 508 1164 l 357 1313 l 335 1313 l 501 1143 z m 474 986 l 194 986 l 194 0 l 213 0 l 215 -3 l 215 0 l 474 0 b 899 493 754 0 899 168 b 474 986 899 818 754 986 z m 474 18 l 215 18 l 215 968 l 474 968 b 876 493 740 968 876 807 b 474 18 876 179 740 18 z "},"Đ":{"ha":1017,"x_min":0,"x_max":0,"o":"m 474 986 l 194 986 l 194 507 l -21 507 l -21 492 l 194 492 l 194 0 l 213 0 l 215 -3 l 215 0 l 474 0 b 899 493 754 0 899 168 b 474 986 899 818 754 986 z m 474 18 l 215 18 l 215 492 l 536 492 l 536 507 l 215 507 l 215 968 l 474 968 b 876 493 740 968 876 807 b 474 18 876 179 740 18 z "},"E":{"ha":861,"x_min":0,"x_max":0,"o":"m 194 0 l 750 0 l 750 18 l 215 18 l 215 499 l 694 499 l 694 517 l 215 517 l 215 968 l 736 968 l 736 986 l 194 986 z "},"É":{"ha":861,"x_min":0,"x_max":0,"o":"m 419 1143 l 442 1143 l 607 1306 l 579 1306 z m 194 0 l 750 0 l 750 18 l 215 18 l 215 499 l 694 499 l 694 517 l 215 517 l 215 968 l 736 968 l 736 986 l 194 986 z "},"Ě":{"ha":861,"x_min":0,"x_max":0,"o":"m 465 1143 l 479 1143 l 646 1313 l 624 1313 l 472 1164 l 321 1313 l 299 1313 z m 194 0 l 750 0 l 750 18 l 215 18 l 215 499 l 694 499 l 694 517 l 215 517 l 215 968 l 736 968 l 736 986 l 194 986 z "},"Ê":{"ha":861,"x_min":0,"x_max":0,"o":"m 299 1143 l 321 1143 l 472 1292 l 624 1143 l 646 1143 l 479 1313 l 465 1313 z m 194 0 l 750 0 l 750 18 l 215 18 l 215 499 l 694 499 l 694 517 l 215 517 l 215 968 l 736 968 l 736 986 l 194 986 z "},"Ë":{"ha":861,"x_min":0,"x_max":0,"o":"m 350 1143 l 372 1143 l 372 1306 l 350 1306 z m 572 1143 l 594 1143 l 594 1306 l 572 1306 z m 194 0 l 750 0 l 750 18 l 215 18 l 215 499 l 694 499 l 694 517 l 215 517 l 215 968 l 736 968 l 736 986 l 194 986 z "},"Ė":{"ha":861,"x_min":0,"x_max":0,"o":"m 461 1143 l 483 1143 l 483 1306 l 461 1306 z m 194 0 l 750 0 l 750 18 l 215 18 l 215 499 l 694 499 l 694 517 l 215 517 l 215 968 l 736 968 l 736 986 l 194 986 z "},"È":{"ha":861,"x_min":0,"x_max":0,"o":"m 508 1143 l 531 1143 l 371 1306 l 343 1306 z m 194 0 l 750 0 l 750 18 l 215 18 l 215 499 l 694 499 l 694 517 l 215 517 l 215 968 l 736 968 l 736 986 l 194 986 z "},"Ē":{"ha":861,"x_min":0,"x_max":0,"o":"m 276 1217 l 667 1217 l 667 1232 l 276 1232 z m 194 0 l 750 0 l 750 18 l 215 18 l 215 499 l 694 499 l 694 517 l 215 517 l 215 968 l 736 968 l 736 986 l 194 986 z "},"Ę":{"ha":861,"x_min":0,"x_max":0,"o":"m 675 -232 b 581 -156 618 -232 581 -201 b 750 0 581 -83 649 -21 l 750 18 l 215 18 l 215 499 l 694 499 l 694 517 l 215 517 l 215 968 l 736 968 l 736 986 l 194 986 l 194 0 l 689 0 b 560 -157 610 -31 560 -89 b 676 -250 560 -212 607 -250 b 778 -222 711 -250 751 -239 l 778 -207 b 675 -232 750 -222 710 -232 z "},"F":{"ha":854,"x_min":0,"x_max":0,"o":"m 750 968 l 750 986 l 194 986 l 194 0 l 215 0 l 215 494 l 708 494 l 708 513 l 215 513 l 215 968 z "},"G":{"ha":1042,"x_min":0,"x_max":0,"o":"m 554 492 l 554 474 l 882 474 l 882 464 b 522 6 882 161 760 6 b 133 493 289 6 133 200 b 522 981 133 815 265 981 b 876 674 728 981 849 876 l 897 674 b 522 1000 869 889 742 1000 b 111 493 251 1000 111 828 b 522 -14 111 189 275 -14 b 889 339 738 -14 858 106 l 882 0 l 903 0 l 903 492 z "},"Ğ":{"ha":1042,"x_min":0,"x_max":0,"o":"m 518 1136 b 692 1306 626 1136 692 1200 l 675 1306 b 518 1154 675 1211 615 1154 b 363 1306 422 1154 363 1211 l 344 1306 b 518 1136 344 1200 410 1136 z m 554 492 l 554 474 l 882 474 l 882 464 b 522 6 882 161 760 6 b 133 493 289 6 133 200 b 522 981 133 815 265 981 b 876 674 728 981 849 876 l 897 674 b 522 1000 869 889 742 1000 b 111 493 251 1000 111 828 b 522 -14 111 189 275 -14 b 889 339 738 -14 858 106 l 882 0 l 903 0 l 903 492 z "},"Ģ":{"ha":1042,"x_min":0,"x_max":0,"o":"m 554 492 l 554 474 l 882 474 l 882 464 b 522 6 882 161 760 6 b 133 493 289 6 133 200 b 522 981 133 815 265 981 b 876 674 728 981 849 876 l 897 674 b 522 1000 869 889 742 1000 b 111 493 251 1000 111 828 b 522 -14 111 189 275 -14 b 889 339 738 -14 858 106 l 882 0 l 903 0 l 903 492 z m 503 -256 l 518 -256 l 503 -368 l 514 -368 l 532 -256 l 532 -93 l 504 -93 z "},"Ġ":{"ha":1042,"x_min":0,"x_max":0,"o":"m 529 1306 l 507 1306 l 507 1143 l 529 1143 z m 554 492 l 554 474 l 882 474 l 882 464 b 522 6 882 161 760 6 b 133 493 289 6 133 200 b 522 981 133 815 265 981 b 876 674 728 981 849 876 l 897 674 b 522 1000 869 889 742 1000 b 111 493 251 1000 111 828 b 522 -14 111 189 275 -14 b 889 339 738 -14 858 106 l 882 0 l 903 0 l 903 492 z "},"H":{"ha":1049,"x_min":0,"x_max":0,"o":"m 833 986 l 833 524 l 215 524 l 215 986 l 194 986 l 194 0 l 215 0 l 215 506 l 833 506 l 833 0 l 854 0 l 854 986 z "},"Ħ":{"ha":1049,"x_min":0,"x_max":0,"o":"m 1025 772 l 854 772 l 854 986 l 833 986 l 833 772 l 215 772 l 215 986 l 194 986 l 194 772 l 24 772 l 24 757 l 194 757 l 194 0 l 215 0 l 215 506 l 833 506 l 833 0 l 854 0 l 854 757 l 1025 757 z m 833 524 l 215 524 l 215 757 l 833 757 z "},"I":{"ha":632,"x_min":0,"x_max":0,"o":"m 540 969 l 540 986 l 92 986 l 92 969 l 306 969 l 306 17 l 92 17 l 92 0 l 539 0 l 539 17 l 326 17 l 326 969 z "},"Í":{"ha":632,"x_min":0,"x_max":0,"o":"m 451 1306 l 424 1306 l 264 1143 l 286 1143 z m 540 969 l 540 986 l 92 986 l 92 969 l 306 969 l 306 17 l 92 17 l 92 0 l 539 0 l 539 17 l 326 17 l 326 969 z "},"Î":{"ha":632,"x_min":0,"x_max":0,"o":"m 317 1292 l 468 1143 l 490 1143 l 324 1313 l 310 1313 l 143 1143 l 165 1143 z m 540 969 l 540 986 l 92 986 l 92 969 l 306 969 l 306 17 l 92 17 l 92 0 l 539 0 l 539 17 l 326 17 l 326 969 z "},"Ï":{"ha":632,"x_min":0,"x_max":0,"o":"m 217 1306 l 194 1306 l 194 1143 l 217 1143 z m 439 1306 l 417 1306 l 417 1143 l 439 1143 z m 540 969 l 540 986 l 92 986 l 92 969 l 306 969 l 306 17 l 92 17 l 92 0 l 539 0 l 539 17 l 326 17 l 326 969 z "},"İ":{"ha":632,"x_min":0,"x_max":0,"o":"m 328 1306 l 306 1306 l 306 1143 l 328 1143 z m 540 969 l 540 986 l 92 986 l 92 969 l 306 969 l 306 17 l 92 17 l 92 0 l 539 0 l 539 17 l 326 17 l 326 969 z "},"Ì":{"ha":632,"x_min":0,"x_max":0,"o":"m 375 1143 l 215 1306 l 188 1306 l 353 1143 z m 540 969 l 540 986 l 92 986 l 92 969 l 306 969 l 306 17 l 92 17 l 92 0 l 539 0 l 539 17 l 326 17 l 326 969 z "},"Ī":{"ha":632,"x_min":0,"x_max":0,"o":"m 511 1232 l 121 1232 l 121 1217 l 511 1217 z m 540 969 l 540 986 l 92 986 l 92 969 l 306 969 l 306 17 l 92 17 l 92 0 l 539 0 l 539 17 l 326 17 l 326 969 z "},"Į":{"ha":632,"x_min":0,"x_max":0,"o":"m 464 -232 b 369 -156 407 -232 369 -201 b 539 0 369 -83 438 -21 l 539 17 l 326 17 l 326 969 l 540 969 l 540 986 l 92 986 l 92 969 l 306 969 l 306 17 l 92 17 l 92 0 l 478 0 b 349 -157 399 -31 349 -89 b 465 -250 349 -212 396 -250 b 567 -222 500 -250 540 -239 l 567 -207 b 464 -232 539 -222 499 -232 z "},"J":{"ha":668,"x_min":0,"x_max":0,"o":"m 474 986 l 97 986 l 97 968 l 453 968 l 453 257 b 235 6 453 81 388 6 b 69 29 186 6 113 14 l 69 10 b 235 -14 113 -4 188 -14 b 474 257 401 -14 474 68 z "},"K":{"ha":961,"x_min":0,"x_max":0,"o":"m 919 0 l 467 579 l 882 986 l 856 986 l 215 357 l 215 986 l 194 986 l 194 0 l 215 0 l 215 332 l 451 564 l 894 0 z "},"Ķ":{"ha":961,"x_min":0,"x_max":0,"o":"m 467 579 l 882 986 l 856 986 l 215 357 l 215 986 l 194 986 l 194 0 l 215 0 l 215 332 l 451 564 l 894 0 l 919 0 z m 479 -256 l 494 -256 l 479 -368 l 490 -368 l 508 -256 l 508 -93 l 481 -93 z "},"L":{"ha":750,"x_min":0,"x_max":0,"o":"m 215 18 l 215 986 l 194 986 l 194 0 l 722 0 l 722 18 z "},"Ĺ":{"ha":750,"x_min":0,"x_max":0,"o":"m 311 1306 l 151 1143 l 174 1143 l 339 1306 z m 215 18 l 215 986 l 194 986 l 194 0 l 722 0 l 722 18 z "},"Ľ":{"ha":750,"x_min":0,"x_max":0,"o":"m 215 18 l 215 986 l 194 986 l 194 0 l 722 0 l 722 18 z m 631 986 l 607 986 l 565 726 l 581 726 z "},"Ļ":{"ha":750,"x_min":0,"x_max":0,"o":"m 215 18 l 215 986 l 194 986 l 194 0 l 722 0 l 722 18 z m 374 -256 l 389 -256 l 374 -368 l 385 -368 l 403 -256 l 403 -93 l 375 -93 z "},"Ł":{"ha":750,"x_min":0,"x_max":0,"o":"m 215 18 l 215 446 l 525 578 l 525 599 l 215 467 l 215 986 l 194 986 l 194 458 l 11 381 l 11 360 l 194 438 l 194 0 l 722 0 l 722 18 z "},"M":{"ha":1292,"x_min":0,"x_max":0,"o":"m 188 0 l 207 0 l 268 968 l 632 0 l 660 0 l 1024 968 l 1085 0 l 1104 0 l 1042 986 l 1010 986 l 646 18 l 282 986 l 250 986 z "},"N":{"ha":1049,"x_min":0,"x_max":0,"o":"m 194 0 l 215 0 l 215 968 l 819 0 l 854 0 l 854 986 l 833 986 l 833 18 l 228 986 l 194 986 z "},"Ń":{"ha":1049,"x_min":0,"x_max":0,"o":"m 472 1143 l 494 1143 l 660 1306 l 632 1306 z m 194 0 l 215 0 l 215 968 l 819 0 l 854 0 l 854 986 l 833 986 l 833 18 l 228 986 l 194 986 z "},"Ň":{"ha":1049,"x_min":0,"x_max":0,"o":"m 518 1143 l 532 1143 l 699 1313 l 676 1313 l 525 1164 l 374 1313 l 351 1313 z m 194 0 l 215 0 l 215 968 l 819 0 l 854 0 l 854 986 l 833 986 l 833 18 l 228 986 l 194 986 z "},"Ņ":{"ha":1049,"x_min":0,"x_max":0,"o":"m 194 0 l 215 0 l 215 968 l 819 0 l 854 0 l 854 986 l 833 986 l 833 18 l 228 986 l 194 986 z m 510 -368 l 521 -368 l 539 -256 l 539 -93 l 511 -93 l 510 -256 l 525 -256 z "},"Ŋ":{"ha":1049,"x_min":0,"x_max":0,"o":"m 833 986 l 833 18 l 228 986 l 194 986 l 194 0 l 215 0 l 215 968 l 833 -22 b 615 -258 829 -187 764 -258 b 478 -243 575 -258 521 -253 l 478 -260 b 615 -278 521 -271 576 -278 b 854 -7 782 -278 854 -196 l 854 986 z "},"Ñ":{"ha":1049,"x_min":0,"x_max":0,"o":"m 358 1189 b 436 1243 365 1221 397 1243 b 610 1189 499 1243 539 1189 b 706 1260 660 1189 699 1217 l 690 1260 b 614 1206 683 1228 653 1206 b 439 1260 551 1206 510 1260 b 343 1189 389 1260 350 1232 z m 194 0 l 215 0 l 215 968 l 819 0 l 854 0 l 854 986 l 833 986 l 833 18 l 228 986 l 194 986 z "},"O":{"ha":1044,"x_min":0,"x_max":0,"o":"m 522 -14 b 933 493 793 -14 933 158 b 522 1000 933 828 793 1000 b 111 493 251 1000 111 828 b 522 -14 111 158 251 -14 z m 522 6 b 133 493 265 6 133 171 b 522 981 133 815 265 981 b 911 493 779 981 911 815 b 522 6 911 171 779 6 z "},"Ó":{"ha":1044,"x_min":0,"x_max":0,"o":"m 469 1143 l 492 1143 l 657 1306 l 629 1306 z m 522 -14 b 933 493 793 -14 933 158 b 522 1000 933 828 793 1000 b 111 493 251 1000 111 828 b 522 -14 111 158 251 -14 z m 522 6 b 133 493 265 6 133 171 b 522 981 133 815 265 981 b 911 493 779 981 911 815 b 522 6 911 171 779 6 z "},"Ô":{"ha":1044,"x_min":0,"x_max":0,"o":"m 349 1143 l 371 1143 l 522 1292 l 674 1143 l 696 1143 l 529 1313 l 515 1313 z m 522 -14 b 933 493 793 -14 933 158 b 522 1000 933 828 793 1000 b 111 493 251 1000 111 828 b 522 -14 111 158 251 -14 z m 522 6 b 133 493 265 6 133 171 b 522 981 133 815 265 981 b 911 493 779 981 911 815 b 522 6 911 171 779 6 z "},"Ö":{"ha":1044,"x_min":0,"x_max":0,"o":"m 400 1143 l 422 1143 l 422 1306 l 400 1306 z m 622 1143 l 644 1143 l 644 1306 l 622 1306 z m 522 -14 b 933 493 793 -14 933 158 b 522 1000 933 828 793 1000 b 111 493 251 1000 111 828 b 522 -14 111 158 251 -14 z m 522 6 b 133 493 265 6 133 171 b 522 981 133 815 265 981 b 911 493 779 981 911 815 b 522 6 911 171 779 6 z "},"Ò":{"ha":1044,"x_min":0,"x_max":0,"o":"m 558 1143 l 581 1143 l 421 1306 l 393 1306 z m 522 -14 b 933 493 793 -14 933 158 b 522 1000 933 828 793 1000 b 111 493 251 1000 111 828 b 522 -14 111 158 251 -14 z m 522 6 b 133 493 265 6 133 171 b 522 981 133 815 265 981 b 911 493 779 981 911 815 b 522 6 911 171 779 6 z "},"Ő":{"ha":1044,"x_min":0,"x_max":0,"o":"m 414 1143 l 436 1143 l 546 1306 l 518 1306 z m 553 1143 l 575 1143 l 685 1306 l 657 1306 z m 522 -14 b 933 493 793 -14 933 158 b 522 1000 933 828 793 1000 b 111 493 251 1000 111 828 b 522 -14 111 158 251 -14 z m 522 6 b 133 493 265 6 133 171 b 522 981 133 815 265 981 b 911 493 779 981 911 815 b 522 6 911 171 779 6 z "},"Ō":{"ha":1044,"x_min":0,"x_max":0,"o":"m 326 1217 l 717 1217 l 717 1232 l 326 1232 z m 522 -14 b 933 493 793 -14 933 158 b 522 1000 933 828 793 1000 b 111 493 251 1000 111 828 b 522 -14 111 158 251 -14 z m 522 6 b 133 493 265 6 133 171 b 522 981 133 815 265 981 b 911 493 779 981 911 815 b 522 6 911 171 779 6 z "},"Ø":{"ha":1044,"x_min":0,"x_max":0,"o":"m 806 899 l 882 1014 l 857 1014 l 790 913 b 522 1000 724 971 633 1000 b 111 493 251 1000 111 828 b 239 88 111 307 154 171 l 163 -28 l 188 -28 l 254 74 b 522 -14 321 15 411 -14 b 933 493 793 -14 933 158 b 806 899 933 679 890 815 z m 133 493 b 522 981 133 815 265 981 b 778 894 629 981 715 951 l 251 106 b 133 493 174 186 133 317 z m 522 6 b 267 92 415 6 329 35 l 793 881 b 911 493 871 800 911 669 b 522 6 911 171 779 6 z "},"Õ":{"ha":1044,"x_min":0,"x_max":0,"o":"m 356 1189 b 433 1243 363 1221 394 1243 b 607 1189 496 1243 536 1189 b 703 1260 657 1189 696 1217 l 688 1260 b 611 1206 681 1228 650 1206 b 436 1260 549 1206 507 1260 b 340 1189 386 1260 347 1232 z m 522 -14 b 933 493 793 -14 933 158 b 522 1000 933 828 793 1000 b 111 493 251 1000 111 828 b 522 -14 111 158 251 -14 z m 522 6 b 133 493 265 6 133 171 b 522 981 133 815 265 981 b 911 493 779 981 911 815 b 522 6 911 171 779 6 z "},"Œ":{"ha":1578,"x_min":0,"x_max":0,"o":"m 932 18 l 932 438 b 933 493 933 456 933 474 l 933 499 l 1411 499 l 1411 517 l 933 517 b 932 549 933 528 932 539 l 932 968 l 1453 968 l 1453 986 l 911 986 l 911 699 b 522 1000 861 899 731 1000 b 111 493 251 1000 111 828 b 522 -14 111 158 251 -14 b 911 288 731 -14 861 88 l 911 0 l 1467 0 l 1467 18 z m 522 6 b 133 493 265 6 133 171 b 522 981 133 815 265 981 b 911 493 779 981 911 815 b 522 6 911 171 779 6 z "},"P":{"ha":901,"x_min":0,"x_max":0,"o":"m 465 986 l 194 986 l 194 0 l 215 0 l 215 375 l 465 375 b 818 681 713 375 818 467 b 465 986 818 894 713 986 z m 465 393 l 215 393 l 215 968 l 465 968 b 796 681 697 968 796 882 b 465 393 796 479 697 393 z "},"Þ":{"ha":881,"x_min":0,"x_max":0,"o":"m 438 806 l 215 806 l 215 986 l 194 986 l 194 0 l 215 0 l 215 194 l 438 194 b 790 500 685 194 790 286 b 438 806 790 714 685 806 z m 438 213 l 215 213 l 215 788 l 438 788 b 768 500 669 788 768 701 b 438 213 768 299 669 213 z "},"Q":{"ha":1069,"x_min":0,"x_max":0,"o":"m 494 -14 b 933 493 785 -22 933 150 b 522 1000 933 828 793 1000 b 111 493 251 1000 111 828 b 386 3 111 225 208 57 l 953 -167 l 958 -149 z m 133 493 b 522 981 133 815 265 981 b 911 493 779 981 911 815 b 522 6 911 171 779 6 b 133 493 265 6 133 171 z "},"R":{"ha":926,"x_min":0,"x_max":0,"o":"m 836 0 l 550 446 b 783 714 713 468 783 553 b 449 986 783 904 683 986 l 194 986 l 194 0 l 215 0 l 215 440 l 449 440 b 526 443 476 440 503 442 l 813 0 z m 215 458 l 215 968 l 449 968 b 761 714 667 968 761 892 b 449 458 761 535 667 458 z "},"Ŕ":{"ha":926,"x_min":0,"x_max":0,"o":"m 599 1306 l 571 1306 l 411 1143 l 433 1143 z m 836 0 l 550 446 b 783 714 713 468 783 553 b 449 986 783 904 683 986 l 194 986 l 194 0 l 215 0 l 215 440 l 449 440 b 526 443 476 440 503 442 l 813 0 z m 215 458 l 215 968 l 449 968 b 761 714 667 968 761 892 b 449 458 761 535 667 458 z "},"Ř":{"ha":926,"x_min":0,"x_max":0,"o":"m 471 1143 l 638 1313 l 615 1313 l 464 1164 l 313 1313 l 290 1313 l 457 1143 z m 836 0 l 550 446 b 783 714 713 468 783 553 b 449 986 783 904 683 986 l 194 986 l 194 0 l 215 0 l 215 440 l 449 440 b 526 443 476 440 503 442 l 813 0 z m 215 458 l 215 968 l 449 968 b 761 714 667 968 761 892 b 449 458 761 535 667 458 z "},"Ŗ":{"ha":926,"x_min":0,"x_max":0,"o":"m 836 0 l 550 446 b 783 714 713 468 783 553 b 449 986 783 904 683 986 l 194 986 l 194 0 l 215 0 l 215 440 l 449 440 b 526 443 476 440 503 442 l 813 0 z m 215 458 l 215 968 l 449 968 b 761 714 667 968 761 892 b 449 458 761 535 667 458 z m 449 -256 l 464 -256 l 449 -368 l 460 -368 l 478 -256 l 478 -93 l 450 -93 z "},"S":{"ha":874,"x_min":0,"x_max":0,"o":"m 440 -14 b 756 242 649 -14 756 74 b 438 521 756 426 594 475 b 153 756 293 563 153 604 b 432 981 153 904 247 981 b 715 715 619 981 715 890 l 736 715 b 432 1000 736 903 632 1000 b 132 756 235 1000 132 917 b 433 500 132 589 283 544 b 736 242 585 457 736 413 b 440 6 736 86 635 6 b 124 311 232 6 124 110 l 104 311 b 440 -14 104 97 218 -14 z "},"Ś":{"ha":874,"x_min":0,"x_max":0,"o":"m 385 1143 l 407 1143 l 572 1306 l 544 1306 z m 440 -14 b 756 242 649 -14 756 74 b 438 521 756 426 594 475 b 153 756 293 563 153 604 b 432 981 153 904 247 981 b 715 715 619 981 715 890 l 736 715 b 432 1000 736 903 632 1000 b 132 756 235 1000 132 917 b 433 500 132 589 283 544 b 736 242 585 457 736 413 b 440 6 736 86 635 6 b 124 311 232 6 124 110 l 104 311 b 440 -14 104 97 218 -14 z "},"Š":{"ha":874,"x_min":0,"x_max":0,"o":"m 431 1143 l 444 1143 l 611 1313 l 589 1313 l 438 1164 l 286 1313 l 264 1313 z m 440 -14 b 756 242 649 -14 756 74 b 438 521 756 426 594 475 b 153 756 293 563 153 604 b 432 981 153 904 247 981 b 715 715 619 981 715 890 l 736 715 b 432 1000 736 903 632 1000 b 132 756 235 1000 132 917 b 433 500 132 589 283 544 b 736 242 585 457 736 413 b 440 6 736 86 635 6 b 124 311 232 6 124 110 l 104 311 b 440 -14 104 97 218 -14 z "},"Ş":{"ha":874,"x_min":0,"x_max":0,"o":"m 440 -14 b 756 242 649 -14 756 74 b 438 521 756 426 594 475 b 153 756 293 563 153 604 b 432 981 153 904 247 981 b 715 715 619 981 715 890 l 736 715 b 432 1000 736 903 632 1000 b 132 756 235 1000 132 917 b 433 500 132 589 283 544 b 736 242 585 457 736 413 b 440 6 736 86 635 6 b 124 311 232 6 124 110 l 104 311 b 414 -14 104 106 210 -6 l 382 -82 l 389 -92 b 524 -183 478 -99 524 -131 b 424 -260 524 -235 479 -260 b 297 -207 379 -260 331 -242 l 289 -222 b 422 -278 319 -258 372 -278 b 544 -182 486 -278 544 -249 b 406 -75 544 -122 499 -86 l 435 -14 z "},"Ș":{"ha":874,"x_min":0,"x_max":0,"o":"m 440 -14 b 756 242 649 -14 756 74 b 438 521 756 426 594 475 b 153 756 293 563 153 604 b 432 981 153 904 247 981 b 715 715 619 981 715 890 l 736 715 b 432 1000 736 903 632 1000 b 132 756 235 1000 132 917 b 433 500 132 589 283 544 b 736 242 585 457 736 413 b 440 6 736 86 635 6 b 124 311 232 6 124 110 l 104 311 b 440 -14 104 97 218 -14 z m 415 -368 l 426 -368 l 444 -256 l 444 -93 l 417 -93 l 415 -256 l 431 -256 z "},"T":{"ha":778,"x_min":0,"x_max":0,"o":"m 750 986 l 28 986 l 28 968 l 378 968 l 378 0 l 399 0 l 399 968 l 750 968 z "},"Ŧ":{"ha":778,"x_min":0,"x_max":0,"o":"m 750 968 l 750 986 l 28 986 l 28 968 l 378 968 l 378 514 l 82 514 l 82 499 l 378 499 l 378 0 l 399 0 l 399 499 l 694 499 l 694 514 l 399 514 l 399 968 z "},"Ť":{"ha":778,"x_min":0,"x_max":0,"o":"m 396 1143 l 563 1313 l 540 1313 l 389 1164 l 238 1313 l 215 1313 l 382 1143 z m 750 986 l 28 986 l 28 968 l 378 968 l 378 0 l 399 0 l 399 968 l 750 968 z "},"Ţ":{"ha":778,"x_min":0,"x_max":0,"o":"m 399 968 l 750 968 l 750 986 l 28 986 l 28 968 l 378 968 l 378 0 l 339 -82 l 346 -92 b 481 -183 435 -99 481 -131 b 381 -260 481 -235 436 -260 b 254 -207 336 -260 288 -242 l 246 -222 b 379 -278 276 -258 329 -278 b 501 -182 443 -278 501 -249 b 363 -75 501 -122 456 -86 l 399 0 z "},"Ț":{"ha":778,"x_min":0,"x_max":0,"o":"m 750 986 l 28 986 l 28 968 l 378 968 l 378 0 l 399 0 l 399 968 l 750 968 z m 372 -256 l 388 -256 l 372 -368 l 383 -368 l 401 -256 l 401 -93 l 374 -93 z "},"U":{"ha":1021,"x_min":0,"x_max":0,"o":"m 511 -14 b 840 354 742 -14 840 97 l 840 986 l 819 986 l 819 354 b 511 6 819 110 726 6 b 201 354 294 6 201 110 l 201 986 l 181 986 l 181 354 b 511 -14 181 97 279 -14 z "},"Ú":{"ha":1021,"x_min":0,"x_max":0,"o":"m 458 1143 l 481 1143 l 646 1306 l 618 1306 z m 511 -14 b 840 354 742 -14 840 97 l 840 986 l 819 986 l 819 354 b 511 6 819 110 726 6 b 201 354 294 6 201 110 l 201 986 l 181 986 l 181 354 b 511 -14 181 97 279 -14 z "},"Ǔ":{"ha":1021,"x_min":0,"x_max":0,"o":"m 504 1143 l 518 1143 l 685 1313 l 663 1313 l 511 1164 l 360 1313 l 338 1313 z m 511 -14 b 840 354 742 -14 840 97 l 840 986 l 819 986 l 819 354 b 511 6 819 110 726 6 b 201 354 294 6 201 110 l 201 986 l 181 986 l 181 354 b 511 -14 181 97 279 -14 z "},"Û":{"ha":1021,"x_min":0,"x_max":0,"o":"m 338 1143 l 360 1143 l 511 1292 l 663 1143 l 685 1143 l 518 1313 l 504 1313 z m 511 -14 b 840 354 742 -14 840 97 l 840 986 l 819 986 l 819 354 b 511 6 819 110 726 6 b 201 354 294 6 201 110 l 201 986 l 181 986 l 181 354 b 511 -14 181 97 279 -14 z "},"Ü":{"ha":1021,"x_min":0,"x_max":0,"o":"m 389 1143 l 411 1143 l 411 1306 l 389 1306 z m 611 1143 l 633 1143 l 633 1306 l 611 1306 z m 511 -14 b 840 354 742 -14 840 97 l 840 986 l 819 986 l 819 354 b 511 6 819 110 726 6 b 201 354 294 6 201 110 l 201 986 l 181 986 l 181 354 b 511 -14 181 97 279 -14 z "},"Ù":{"ha":1021,"x_min":0,"x_max":0,"o":"m 547 1143 l 569 1143 l 410 1306 l 382 1306 z m 511 -14 b 840 354 742 -14 840 97 l 840 986 l 819 986 l 819 354 b 511 6 819 110 726 6 b 201 354 294 6 201 110 l 201 986 l 181 986 l 181 354 b 511 -14 181 97 279 -14 z "},"Ű":{"ha":1021,"x_min":0,"x_max":0,"o":"m 403 1143 l 425 1143 l 535 1306 l 507 1306 z m 542 1143 l 564 1143 l 674 1306 l 646 1306 z m 511 -14 b 840 354 742 -14 840 97 l 840 986 l 819 986 l 819 354 b 511 6 819 110 726 6 b 201 354 294 6 201 110 l 201 986 l 181 986 l 181 354 b 511 -14 181 97 279 -14 z "},"Ū":{"ha":1021,"x_min":0,"x_max":0,"o":"m 315 1217 l 706 1217 l 706 1232 l 315 1232 z m 511 -14 b 840 354 742 -14 840 97 l 840 986 l 819 986 l 819 354 b 511 6 819 110 726 6 b 201 354 294 6 201 110 l 201 986 l 181 986 l 181 354 b 511 -14 181 97 279 -14 z "},"Ų":{"ha":1021,"x_min":0,"x_max":0,"o":"m 819 986 l 819 354 b 511 6 819 110 726 6 b 201 354 294 6 201 110 l 201 986 l 181 986 l 181 354 b 511 -14 181 97 279 -14 b 544 -12 522 -14 535 -14 b 444 -157 482 -46 444 -99 b 561 -250 444 -212 492 -250 b 663 -222 596 -250 636 -239 l 663 -207 b 560 -232 635 -222 594 -232 b 465 -156 503 -232 465 -201 b 617 -4 465 -87 525 -28 b 840 354 772 28 840 140 l 840 986 z "},"Ů":{"ha":1021,"x_min":0,"x_max":0,"o":"m 511 1075 b 651 1217 596 1075 651 1132 b 511 1357 651 1301 596 1357 b 369 1217 426 1357 369 1301 b 511 1075 369 1132 426 1075 z m 511 1093 b 390 1217 439 1094 390 1143 b 511 1340 390 1290 439 1340 b 631 1217 582 1340 631 1290 b 511 1093 631 1143 582 1094 z m 511 -14 b 840 354 742 -14 840 97 l 840 986 l 819 986 l 819 354 b 511 6 819 110 726 6 b 201 354 294 6 201 110 l 201 986 l 181 986 l 181 354 b 511 -14 181 97 279 -14 z "},"V":{"ha":818,"x_min":0,"x_max":0,"o":"m 393 0 l 421 0 l 783 986 l 761 986 l 408 17 l 58 986 l 35 986 z "},"W":{"ha":1292,"x_min":0,"x_max":0,"o":"m 303 0 l 338 0 l 646 969 l 957 0 l 989 0 l 1257 986 l 1238 986 l 974 17 l 664 986 l 629 986 l 321 17 l 57 986 l 35 986 z "},"Ẃ":{"ha":1292,"x_min":0,"x_max":0,"o":"m 593 1143 l 615 1143 l 781 1306 l 753 1306 z m 303 0 l 338 0 l 646 969 l 957 0 l 989 0 l 1257 986 l 1238 986 l 974 17 l 664 986 l 629 986 l 321 17 l 57 986 l 35 986 z "},"Ŵ":{"ha":1292,"x_min":0,"x_max":0,"o":"m 472 1143 l 494 1143 l 646 1292 l 797 1143 l 819 1143 l 653 1313 l 639 1313 z m 303 0 l 338 0 l 646 969 l 957 0 l 989 0 l 1257 986 l 1238 986 l 974 17 l 664 986 l 629 986 l 321 17 l 57 986 l 35 986 z "},"Ẅ":{"ha":1292,"x_min":0,"x_max":0,"o":"m 524 1143 l 546 1143 l 546 1306 l 524 1306 z m 746 1143 l 768 1143 l 768 1306 l 746 1306 z m 303 0 l 338 0 l 646 969 l 957 0 l 989 0 l 1257 986 l 1238 986 l 974 17 l 664 986 l 629 986 l 321 17 l 57 986 l 35 986 z "},"Ẁ":{"ha":1292,"x_min":0,"x_max":0,"o":"m 682 1143 l 704 1143 l 544 1306 l 517 1306 z m 303 0 l 338 0 l 646 969 l 957 0 l 989 0 l 1257 986 l 1238 986 l 974 17 l 664 986 l 629 986 l 321 17 l 57 986 l 35 986 z "},"X":{"ha":917,"x_min":0,"x_max":0,"o":"m 88 0 l 107 0 l 458 486 l 810 0 l 831 0 l 468 503 l 818 986 l 799 986 l 458 518 l 118 986 l 97 986 l 449 501 z "},"Y":{"ha":832,"x_min":0,"x_max":0,"o":"m 804 986 l 783 986 l 417 406 l 51 986 l 28 986 l 406 388 l 406 0 l 426 0 l 426 388 z "},"Ý":{"ha":832,"x_min":0,"x_max":0,"o":"m 551 1306 l 524 1306 l 364 1143 l 386 1143 z m 804 986 l 783 986 l 417 406 l 51 986 l 28 986 l 406 388 l 406 0 l 426 0 l 426 388 z "},"Ŷ":{"ha":832,"x_min":0,"x_max":0,"o":"m 417 1292 l 568 1143 l 590 1143 l 424 1313 l 410 1313 l 243 1143 l 265 1143 z m 804 986 l 783 986 l 417 406 l 51 986 l 28 986 l 406 388 l 406 0 l 426 0 l 426 388 z "},"Ÿ":{"ha":832,"x_min":0,"x_max":0,"o":"m 317 1306 l 294 1306 l 294 1143 l 317 1143 z m 539 1306 l 517 1306 l 517 1143 l 539 1143 z m 804 986 l 783 986 l 417 406 l 51 986 l 28 986 l 406 388 l 406 0 l 426 0 l 426 388 z "},"Ỳ":{"ha":832,"x_min":0,"x_max":0,"o":"m 475 1143 l 315 1306 l 288 1306 l 453 1143 z m 804 986 l 783 986 l 417 406 l 51 986 l 28 986 l 406 388 l 406 0 l 426 0 l 426 388 z "},"Z":{"ha":813,"x_min":0,"x_max":0,"o":"m 101 18 l 713 968 l 713 986 l 90 986 l 90 968 l 688 968 l 76 18 l 76 0 l 736 0 l 736 18 z "},"Ź":{"ha":813,"x_min":0,"x_max":0,"o":"m 542 1306 l 514 1306 l 354 1143 l 376 1143 z m 101 18 l 713 968 l 713 986 l 90 986 l 90 968 l 688 968 l 76 18 l 76 0 l 736 0 l 736 18 z "},"Ž":{"ha":813,"x_min":0,"x_max":0,"o":"m 414 1143 l 581 1313 l 558 1313 l 407 1164 l 256 1313 l 233 1313 l 400 1143 z m 101 18 l 713 968 l 713 986 l 90 986 l 90 968 l 688 968 l 76 18 l 76 0 l 736 0 l 736 18 z "},"Ż":{"ha":813,"x_min":0,"x_max":0,"o":"m 418 1306 l 396 1306 l 396 1143 l 418 1143 z m 101 18 l 713 968 l 713 986 l 90 986 l 90 968 l 688 968 l 76 18 l 76 0 l 736 0 l 736 18 z "},"a":{"ha":826,"x_min":0,"x_max":0,"o":"m 681 0 b 653 232 663 63 653 140 l 653 472 b 399 750 653 656 567 750 b 146 511 260 750 146 668 l 167 511 b 399 731 167 656 274 731 b 632 472 553 731 632 643 l 632 403 l 372 389 b 118 183 204 381 118 317 b 363 -14 118 53 201 -14 b 638 140 508 -14 603 39 b 660 0 642 81 651 33 z m 363 7 b 140 183 215 7 140 69 b 372 371 140 300 219 364 l 632 383 l 632 224 b 363 7 632 86 540 7 z "},"á":{"ha":826,"x_min":0,"x_max":0,"o":"m 535 1056 l 507 1056 l 347 893 l 369 893 z m 681 0 b 653 232 663 63 653 140 l 653 472 b 399 750 653 656 567 750 b 146 511 260 750 146 668 l 167 511 b 399 731 167 656 274 731 b 632 472 553 731 632 643 l 632 403 l 372 389 b 118 183 204 381 118 317 b 363 -14 118 53 201 -14 b 638 140 508 -14 603 39 b 660 0 642 81 651 33 z m 363 7 b 140 183 215 7 140 69 b 372 371 140 300 219 364 l 632 383 l 632 224 b 363 7 632 86 540 7 z "},"ă":{"ha":826,"x_min":0,"x_max":0,"o":"m 400 886 b 574 1056 508 886 574 950 l 557 1056 b 400 904 557 961 497 904 b 244 1056 304 904 244 961 l 226 1056 b 400 886 226 950 292 886 z m 681 0 b 653 232 663 63 653 140 l 653 472 b 399 750 653 656 567 750 b 146 511 260 750 146 668 l 167 511 b 399 731 167 656 274 731 b 632 472 553 731 632 643 l 632 403 l 372 389 b 118 183 204 381 118 317 b 363 -14 118 53 201 -14 b 638 140 508 -14 603 39 b 660 0 642 81 651 33 z m 363 7 b 140 183 215 7 140 69 b 372 371 140 300 219 364 l 632 383 l 632 224 b 363 7 632 86 540 7 z "},"â":{"ha":826,"x_min":0,"x_max":0,"o":"m 400 1042 l 551 893 l 574 893 l 407 1063 l 393 1063 l 226 893 l 249 893 z m 681 0 b 653 232 663 63 653 140 l 653 472 b 399 750 653 656 567 750 b 146 511 260 750 146 668 l 167 511 b 399 731 167 656 274 731 b 632 472 553 731 632 643 l 632 403 l 372 389 b 118 183 204 381 118 317 b 363 -14 118 53 201 -14 b 638 140 508 -14 603 39 b 660 0 642 81 651 33 z m 363 7 b 140 183 215 7 140 69 b 372 371 140 300 219 364 l 632 383 l 632 224 b 363 7 632 86 540 7 z "},"ä":{"ha":826,"x_min":0,"x_max":0,"o":"m 300 1056 l 278 1056 l 278 893 l 300 893 z m 522 1056 l 500 1056 l 500 893 l 522 893 z m 681 0 b 653 232 663 63 653 140 l 653 472 b 399 750 653 656 567 750 b 146 511 260 750 146 668 l 167 511 b 399 731 167 656 274 731 b 632 472 553 731 632 643 l 632 403 l 372 389 b 118 183 204 381 118 317 b 363 -14 118 53 201 -14 b 638 140 508 -14 603 39 b 660 0 642 81 651 33 z m 363 7 b 140 183 215 7 140 69 b 372 371 140 300 219 364 l 632 383 l 632 224 b 363 7 632 86 540 7 z "},"à":{"ha":826,"x_min":0,"x_max":0,"o":"m 458 893 l 299 1056 l 271 1056 l 436 893 z m 681 0 b 653 232 663 63 653 140 l 653 472 b 399 750 653 656 567 750 b 146 511 260 750 146 668 l 167 511 b 399 731 167 656 274 731 b 632 472 553 731 632 643 l 632 403 l 372 389 b 118 183 204 381 118 317 b 363 -14 118 53 201 -14 b 638 140 508 -14 603 39 b 660 0 642 81 651 33 z m 363 7 b 140 183 215 7 140 69 b 372 371 140 300 219 364 l 632 383 l 632 224 b 363 7 632 86 540 7 z "},"ā":{"ha":826,"x_min":0,"x_max":0,"o":"m 594 982 l 204 982 l 204 967 l 594 967 z m 681 0 b 653 232 663 63 653 140 l 653 472 b 399 750 653 656 567 750 b 146 511 260 750 146 668 l 167 511 b 399 731 167 656 274 731 b 632 472 553 731 632 643 l 632 403 l 372 389 b 118 183 204 381 118 317 b 363 -14 118 53 201 -14 b 638 140 508 -14 603 39 b 660 0 642 81 651 33 z m 363 7 b 140 183 215 7 140 69 b 372 371 140 300 219 364 l 632 383 l 632 224 b 363 7 632 86 540 7 z "},"ą":{"ha":826,"x_min":0,"x_max":0,"o":"m 606 -232 b 511 -156 549 -232 511 -201 b 681 0 511 -83 579 -21 b 653 232 663 63 653 140 l 653 472 b 399 750 653 656 567 750 b 146 511 260 750 146 668 l 167 511 b 399 731 167 656 274 731 b 632 472 553 731 632 643 l 632 403 l 372 389 b 118 183 204 381 118 317 b 363 -14 118 53 201 -14 b 638 140 508 -14 603 39 b 657 11 640 88 649 43 b 490 -157 556 -14 490 -79 b 607 -250 490 -212 538 -250 b 708 -222 642 -250 682 -239 l 708 -207 b 606 -232 681 -222 640 -232 z m 363 7 b 140 183 215 7 140 69 b 372 371 140 300 219 364 l 632 383 l 632 224 b 363 7 632 86 540 7 z "},"å":{"ha":826,"x_min":0,"x_max":0,"o":"m 400 825 b 540 967 485 825 540 882 b 400 1107 540 1051 485 1107 b 258 967 315 1107 258 1051 b 400 825 258 882 315 825 z m 400 1090 b 519 967 471 1090 519 1040 b 400 843 519 893 471 844 b 279 967 328 844 279 893 b 400 1090 279 1040 328 1090 z m 681 0 b 653 232 663 63 653 140 l 653 472 b 399 750 653 656 567 750 b 146 511 260 750 146 668 l 167 511 b 399 731 167 656 274 731 b 632 472 553 731 632 643 l 632 403 l 372 389 b 118 183 204 381 118 317 b 363 -14 118 53 201 -14 b 638 140 508 -14 603 39 b 660 0 642 81 651 33 z m 363 7 b 140 183 215 7 140 69 b 372 371 140 300 219 364 l 632 383 l 632 224 b 363 7 632 86 540 7 z "},"ã":{"ha":826,"x_min":0,"x_max":0,"o":"m 311 993 b 485 939 374 993 414 939 b 581 1010 535 939 574 967 l 565 1010 b 489 956 558 978 528 956 b 314 1010 426 956 385 1010 b 218 939 264 1010 225 982 l 233 939 b 311 993 240 971 272 993 z m 681 0 b 653 232 663 63 653 140 l 653 472 b 399 750 653 656 567 750 b 146 511 260 750 146 668 l 167 511 b 399 731 167 656 274 731 b 632 472 553 731 632 643 l 632 403 l 372 389 b 118 183 204 381 118 317 b 363 -14 118 53 201 -14 b 638 140 508 -14 603 39 b 660 0 642 81 651 33 z m 363 7 b 140 183 215 7 140 69 b 372 371 140 300 219 364 l 632 383 l 632 224 b 363 7 632 86 540 7 z "},"æ":{"ha":1342,"x_min":0,"x_max":0,"o":"m 1238 239 b 969 3 1214 83 1124 3 b 681 369 763 3 682 128 l 1251 369 b 1257 418 1256 390 1257 407 b 969 764 1257 646 1160 764 b 675 513 807 764 708 679 b 413 750 663 669 572 750 b 146 511 242 750 146 664 l 167 511 b 413 731 167 651 256 731 b 660 472 575 731 660 643 l 660 389 l 372 385 b 118 183 204 382 118 311 b 363 -14 118 53 201 -14 b 676 215 553 -14 665 76 l 676 217 b 969 -14 708 64 796 -14 b 1258 239 1143 -14 1232 72 z m 969 747 b 1236 389 1156 747 1246 625 l 681 389 b 969 747 685 625 783 747 z m 363 7 b 140 183 215 7 140 67 b 372 367 140 300 219 365 l 660 369 l 660 253 b 363 7 660 100 558 7 z "},"b":{"ha":865,"x_min":0,"x_max":0,"o":"m 482 750 b 201 515 335 750 238 664 l 201 1056 l 181 1056 l 181 0 l 197 0 l 201 222 l 201 229 b 482 -14 238 75 335 -14 b 775 368 669 -14 775 124 b 482 750 775 613 669 750 z m 482 3 b 201 375 303 3 201 136 b 482 733 201 604 303 733 b 753 368 656 733 753 601 b 482 3 753 135 656 3 z "},"c":{"ha":765,"x_min":0,"x_max":0,"o":"m 400 -14 b 689 239 574 -14 663 72 l 668 239 b 400 3 644 83 554 3 b 111 375 192 3 111 129 b 400 747 111 621 192 747 b 663 511 556 747 640 668 l 682 511 b 400 764 660 678 574 764 b 90 375 178 764 90 632 b 400 -14 90 118 178 -14 z "},"ć":{"ha":765,"x_min":0,"x_max":0,"o":"m 326 893 l 349 893 l 514 1056 l 486 1056 z m 400 -14 b 689 239 574 -14 663 72 l 668 239 b 400 3 644 83 554 3 b 111 375 192 3 111 129 b 400 747 111 621 192 747 b 663 511 556 747 640 668 l 682 511 b 400 764 660 678 574 764 b 90 375 178 764 90 632 b 400 -14 90 118 178 -14 z "},"č":{"ha":765,"x_min":0,"x_max":0,"o":"m 372 893 l 386 893 l 553 1063 l 531 1063 l 379 914 l 228 1063 l 206 1063 z m 400 -14 b 689 239 574 -14 663 72 l 668 239 b 400 3 644 83 554 3 b 111 375 192 3 111 129 b 400 747 111 621 192 747 b 663 511 556 747 640 668 l 682 511 b 400 764 660 678 574 764 b 90 375 178 764 90 632 b 400 -14 90 118 178 -14 z "},"ç":{"ha":765,"x_min":0,"x_max":0,"o":"m 689 239 l 668 239 b 400 3 644 83 554 3 b 111 375 192 3 111 129 b 400 747 111 621 192 747 b 663 511 556 747 640 668 l 682 511 b 400 764 660 678 574 764 b 90 375 178 764 90 632 b 390 -14 90 122 175 -10 l 358 -82 l 365 -92 b 500 -183 454 -99 500 -131 b 400 -260 500 -235 456 -260 b 274 -207 356 -260 307 -242 l 265 -222 b 399 -278 296 -258 349 -278 b 521 -182 463 -278 521 -249 b 382 -75 521 -122 475 -86 l 411 -14 b 689 239 578 -10 663 76 z "},"ċ":{"ha":765,"x_min":0,"x_max":0,"o":"m 368 893 l 390 893 l 390 1056 l 368 1056 z m 400 -14 b 689 239 574 -14 663 72 l 668 239 b 400 3 644 83 554 3 b 111 375 192 3 111 129 b 400 747 111 621 192 747 b 663 511 556 747 640 668 l 682 511 b 400 764 660 678 574 764 b 90 375 178 764 90 632 b 400 -14 90 118 178 -14 z "},"d":{"ha":865,"x_min":0,"x_max":0,"o":"m 664 1056 l 664 515 b 383 750 628 664 531 750 b 90 368 196 750 90 613 b 383 -14 90 124 196 -14 b 664 229 531 -14 628 75 l 664 222 l 668 0 l 685 0 l 685 1056 z m 383 3 b 113 368 210 3 113 135 b 383 733 113 601 210 733 b 664 375 563 733 664 604 b 383 3 664 136 563 3 z "},"ð":{"ha":833,"x_min":0,"x_max":0,"o":"m 744 1078 l 735 1092 l 567 961 b 228 1083 488 1042 378 1083 l 228 1065 b 551 950 371 1065 476 1025 l 279 740 l 289 725 l 564 938 b 703 421 663 829 703 653 b 415 592 667 533 569 592 b 111 289 214 592 111 489 b 415 -14 111 89 214 -14 b 718 344 621 -14 710 101 b 578 949 726 624 686 826 z m 415 4 b 132 289 228 4 132 101 b 415 574 132 476 228 574 b 697 344 601 574 697 476 b 415 4 697 113 607 4 z "},"ď":{"ha":865,"x_min":0,"x_max":0,"o":"m 664 515 b 383 750 628 664 531 750 b 90 368 196 750 90 613 b 383 -14 90 124 196 -14 b 664 229 531 -14 628 75 l 664 222 l 668 0 l 685 0 l 685 1056 l 664 1056 z m 878 1056 l 836 796 l 851 796 l 901 1056 z m 383 3 b 113 368 210 3 113 135 b 383 733 113 601 210 733 b 664 375 563 733 664 604 b 383 3 664 136 563 3 z "},"đ":{"ha":865,"x_min":0,"x_max":0,"o":"m 822 882 l 685 882 l 685 1056 l 664 1056 l 664 882 l 293 882 l 293 867 l 664 867 l 664 515 b 383 750 628 664 531 750 b 90 368 196 750 90 613 b 383 -14 90 124 196 -14 b 664 229 531 -14 628 75 l 664 222 l 668 0 l 685 0 l 685 867 l 822 867 z m 383 3 b 113 368 210 3 113 135 b 383 733 113 601 210 733 b 664 375 563 733 664 604 b 383 3 664 136 563 3 z "},"e":{"ha":772,"x_min":0,"x_max":0,"o":"m 668 239 b 400 3 644 83 554 3 b 111 369 193 3 113 128 l 683 369 b 688 418 686 390 688 407 b 400 757 688 642 604 757 b 90 375 178 757 90 628 b 400 -14 90 118 178 -14 b 689 239 574 -14 663 72 z m 400 740 b 667 388 592 740 675 618 l 111 388 b 400 740 114 621 196 740 z "},"é":{"ha":772,"x_min":0,"x_max":0,"o":"m 528 1056 l 500 1056 l 340 893 l 363 893 z m 668 239 b 400 3 644 83 554 3 b 111 369 193 3 113 128 l 683 369 b 688 418 686 390 688 407 b 400 757 688 642 604 757 b 90 375 178 757 90 628 b 400 -14 90 118 178 -14 b 689 239 574 -14 663 72 z m 400 740 b 667 388 592 740 675 618 l 111 388 b 400 740 114 621 196 740 z "},"ě":{"ha":772,"x_min":0,"x_max":0,"o":"m 400 893 l 567 1063 l 544 1063 l 393 914 l 242 1063 l 219 1063 l 386 893 z m 668 239 b 400 3 644 83 554 3 b 111 369 193 3 113 128 l 683 369 b 688 418 686 390 688 407 b 400 757 688 642 604 757 b 90 375 178 757 90 628 b 400 -14 90 118 178 -14 b 689 239 574 -14 663 72 z m 400 740 b 667 388 592 740 675 618 l 111 388 b 400 740 114 621 196 740 z "},"ê":{"ha":772,"x_min":0,"x_max":0,"o":"m 393 1042 l 544 893 l 567 893 l 400 1063 l 386 1063 l 219 893 l 242 893 z m 668 239 b 400 3 644 83 554 3 b 111 369 193 3 113 128 l 683 369 b 688 418 686 390 688 407 b 400 757 688 642 604 757 b 90 375 178 757 90 628 b 400 -14 90 118 178 -14 b 689 239 574 -14 663 72 z m 400 740 b 667 388 592 740 675 618 l 111 388 b 400 740 114 621 196 740 z "},"ë":{"ha":772,"x_min":0,"x_max":0,"o":"m 293 1056 l 271 1056 l 271 893 l 293 893 z m 515 1056 l 493 1056 l 493 893 l 515 893 z m 668 239 b 400 3 644 83 554 3 b 111 369 193 3 113 128 l 683 369 b 688 418 686 390 688 407 b 400 757 688 642 604 757 b 90 375 178 757 90 628 b 400 -14 90 118 178 -14 b 689 239 574 -14 663 72 z m 400 740 b 667 388 592 740 675 618 l 111 388 b 400 740 114 621 196 740 z "},"ė":{"ha":772,"x_min":0,"x_max":0,"o":"m 404 1056 l 382 1056 l 382 893 l 404 893 z m 668 239 b 400 3 644 83 554 3 b 111 369 193 3 113 128 l 683 369 b 688 418 686 390 688 407 b 400 757 688 642 604 757 b 90 375 178 757 90 628 b 400 -14 90 118 178 -14 b 689 239 574 -14 663 72 z m 400 740 b 667 388 592 740 675 618 l 111 388 b 400 740 114 621 196 740 z "},"è":{"ha":772,"x_min":0,"x_max":0,"o":"m 451 893 l 292 1056 l 264 1056 l 429 893 z m 668 239 b 400 3 644 83 554 3 b 111 369 193 3 113 128 l 683 369 b 688 418 686 390 688 407 b 400 757 688 642 604 757 b 90 375 178 757 90 628 b 400 -14 90 118 178 -14 b 689 239 574 -14 663 72 z m 400 740 b 667 388 592 740 675 618 l 111 388 b 400 740 114 621 196 740 z "},"ē":{"ha":772,"x_min":0,"x_max":0,"o":"m 588 982 l 197 982 l 197 967 l 588 967 z m 668 239 b 400 3 644 83 554 3 b 111 369 193 3 113 128 l 683 369 b 688 418 686 390 688 407 b 400 757 688 642 604 757 b 90 375 178 757 90 628 b 400 -14 90 118 178 -14 b 689 239 574 -14 663 72 z m 400 740 b 667 388 592 740 675 618 l 111 388 b 400 740 114 621 196 740 z "},"ę":{"ha":772,"x_min":0,"x_max":0,"o":"m 481 -7 b 689 239 601 17 667 100 l 668 239 b 400 3 644 83 554 3 b 111 369 193 3 113 128 l 683 369 b 688 418 686 390 688 407 b 400 757 688 642 604 757 b 90 375 178 757 90 628 b 400 -14 90 118 178 -14 l 417 -14 b 317 -157 354 -46 317 -99 b 433 -250 317 -212 364 -250 b 535 -222 468 -250 508 -239 l 535 -207 b 432 -232 507 -222 467 -232 b 338 -156 375 -232 338 -201 b 481 -7 338 -90 394 -32 z m 400 740 b 667 388 592 740 675 618 l 111 388 b 400 740 114 621 196 740 z "},"f":{"ha":474,"x_min":0,"x_max":0,"o":"m 381 1064 b 501 1036 417 1064 457 1054 l 501 1056 b 381 1083 458 1074 418 1083 b 181 861 249 1083 181 1008 l 181 736 l 49 736 l 49 719 l 181 719 l 181 0 l 201 0 l 201 719 l 460 719 l 460 736 l 201 736 l 201 861 b 381 1064 201 994 263 1064 z "},"g":{"ha":864,"x_min":0,"x_max":0,"o":"m 681 736 l 676 514 b 406 750 643 660 551 750 b 90 368 206 750 90 621 b 406 -14 90 115 206 -14 b 676 222 551 -14 643 76 l 676 14 b 400 -258 676 -171 588 -258 b 150 -76 269 -258 169 -186 l 128 -76 b 400 -278 143 -197 249 -278 b 697 14 603 -278 697 -185 l 697 736 z m 406 6 b 113 368 219 6 113 129 b 406 731 113 607 219 731 b 676 368 586 731 676 585 b 406 6 676 151 586 6 z "},"ğ":{"ha":864,"x_min":0,"x_max":0,"o":"m 417 886 b 590 1056 525 886 590 950 l 574 1056 b 417 904 574 961 514 904 b 261 1056 321 904 261 961 l 243 1056 b 417 886 243 950 308 886 z m 681 736 l 676 514 b 406 750 643 660 551 750 b 90 368 206 750 90 621 b 406 -14 90 115 206 -14 b 676 222 551 -14 643 76 l 676 14 b 400 -258 676 -171 588 -258 b 150 -76 269 -258 169 -186 l 128 -76 b 400 -278 143 -197 249 -278 b 697 14 603 -278 697 -185 l 697 736 z m 406 6 b 113 368 219 6 113 129 b 406 731 113 607 219 731 b 676 368 586 731 676 585 b 406 6 676 151 586 6 z "},"ģ":{"ha":864,"x_min":0,"x_max":0,"o":"m 431 1056 l 415 1056 l 431 1168 l 419 1168 l 401 1056 l 401 893 l 429 893 z m 681 736 l 676 514 b 406 750 643 660 551 750 b 90 368 206 750 90 621 b 406 -14 90 115 206 -14 b 676 222 551 -14 643 76 l 676 14 b 400 -258 676 -171 588 -258 b 150 -76 269 -258 169 -186 l 128 -76 b 400 -278 143 -197 249 -278 b 697 14 603 -278 697 -185 l 697 736 z m 406 6 b 113 368 219 6 113 129 b 406 731 113 607 219 731 b 676 368 586 731 676 585 b 406 6 676 151 586 6 z "},"ġ":{"ha":864,"x_min":0,"x_max":0,"o":"m 428 1056 l 406 1056 l 406 893 l 428 893 z m 681 736 l 676 514 b 406 750 643 660 551 750 b 90 368 206 750 90 621 b 406 -14 90 115 206 -14 b 676 222 551 -14 643 76 l 676 14 b 400 -258 676 -171 588 -258 b 150 -76 269 -258 169 -186 l 128 -76 b 400 -278 143 -197 249 -278 b 697 14 603 -278 697 -185 l 697 736 z m 406 6 b 113 368 219 6 113 129 b 406 731 113 607 219 731 b 676 368 586 731 676 585 b 406 6 676 151 586 6 z "},"h":{"ha":853,"x_min":0,"x_max":0,"o":"m 467 750 b 201 488 335 750 233 650 l 201 1056 l 181 1056 l 181 0 l 201 0 l 201 361 b 467 731 201 546 292 731 b 679 479 601 731 679 656 l 679 0 l 700 0 l 700 479 b 467 750 700 668 617 750 z "},"ħ":{"ha":853,"x_min":0,"x_max":0,"o":"m 467 750 b 201 488 335 750 233 650 l 201 867 l 579 867 l 579 882 l 201 882 l 201 1056 l 181 1056 l 181 882 l 50 882 l 50 867 l 181 867 l 181 0 l 201 0 l 201 361 b 467 731 201 546 292 731 b 679 479 601 731 679 656 l 679 0 l 700 0 l 700 479 b 467 750 700 668 617 750 z "},"i":{"ha":382,"x_min":0,"x_max":0,"o":"m 179 893 l 201 893 l 201 1056 l 179 1056 z m 181 0 l 201 0 l 201 736 l 181 736 z "},"ı":{"ha":382,"x_min":0,"x_max":0,"o":"m 181 0 l 201 0 l 201 736 l 181 736 z "},"í":{"ha":382,"x_min":0,"x_max":0,"o":"m 138 893 l 160 893 l 325 1056 l 297 1056 z m 181 0 l 201 0 l 201 736 l 181 736 z "},"î":{"ha":382,"x_min":0,"x_max":0,"o":"m 17 893 l 39 893 l 190 1042 l 342 893 l 364 893 l 197 1063 l 183 1063 z m 181 0 l 201 0 l 201 736 l 181 736 z "},"ï":{"ha":382,"x_min":0,"x_max":0,"o":"m 68 893 l 90 893 l 90 1056 l 68 1056 z m 290 893 l 313 893 l 313 1056 l 290 1056 z m 181 0 l 201 0 l 201 736 l 181 736 z "},"ì":{"ha":382,"x_min":0,"x_max":0,"o":"m 226 893 l 249 893 l 89 1056 l 61 1056 z m 181 0 l 201 0 l 201 736 l 181 736 z "},"ī":{"ha":382,"x_min":0,"x_max":0,"o":"m -6 967 l 385 967 l 385 982 l -6 982 z m 181 0 l 201 0 l 201 736 l 181 736 z "},"į":{"ha":382,"x_min":0,"x_max":0,"o":"m 201 1056 l 179 1056 l 179 893 l 201 893 z m 125 -232 b 31 -156 68 -232 31 -201 b 200 0 31 -83 99 -21 l 201 0 l 201 736 l 181 736 l 181 13 b 10 -157 78 -11 10 -78 b 126 -250 10 -212 57 -250 b 228 -222 161 -250 201 -239 l 228 -207 b 125 -232 200 -222 160 -232 z "},"j":{"ha":378,"x_min":0,"x_max":0,"o":"m 189 893 l 211 893 l 211 1056 l 189 1056 z m 64 -278 b 211 -97 153 -278 211 -206 l 211 736 l 189 736 l 189 -97 b 64 -260 189 -194 139 -260 b -35 -244 31 -260 -10 -254 l -35 -262 b 64 -278 -10 -272 29 -278 z "},"ȷ":{"ha":378,"x_min":0,"x_max":0,"o":"m 64 -278 b 211 -97 153 -278 211 -206 l 211 736 l 189 736 l 189 -97 b 64 -260 189 -194 139 -260 b -35 -244 31 -260 -10 -254 l -35 -262 b 64 -278 -10 -272 29 -278 z "},"k":{"ha":788,"x_min":0,"x_max":0,"o":"m 735 0 l 760 0 l 369 449 l 719 736 l 692 736 l 222 351 l 222 1056 l 201 1056 l 201 0 l 222 0 l 222 328 l 354 436 z "},"ķ":{"ha":788,"x_min":0,"x_max":0,"o":"m 369 449 l 719 736 l 692 736 l 222 351 l 222 1056 l 201 1056 l 201 0 l 222 0 l 222 328 l 354 436 l 735 0 l 760 0 z m 393 -256 l 408 -256 l 393 -368 l 404 -368 l 422 -256 l 422 -93 l 394 -93 z "},"l":{"ha":382,"x_min":0,"x_max":0,"o":"m 181 0 l 201 0 l 201 1056 l 181 1056 z "},"ĺ":{"ha":382,"x_min":0,"x_max":0,"o":"m 139 1143 l 161 1143 l 326 1306 l 299 1306 z m 181 0 l 201 0 l 201 1056 l 181 1056 z "},"ľ":{"ha":382,"x_min":0,"x_max":0,"o":"m 181 0 l 201 0 l 201 1056 l 181 1056 z m 350 796 l 365 796 l 415 1056 l 392 1056 z "},"ļ":{"ha":382,"x_min":0,"x_max":0,"o":"m 181 0 l 201 0 l 201 1056 l 181 1056 z m 176 -368 l 188 -368 l 206 -256 l 206 -93 l 178 -93 l 176 -256 l 192 -256 z "},"ł":{"ha":382,"x_min":0,"x_max":0,"o":"m 382 571 l 201 494 l 201 1056 l 181 1056 l 181 485 l 0 408 l 0 388 l 181 464 l 181 0 l 201 0 l 201 474 l 382 550 z "},"m":{"ha":1351,"x_min":0,"x_max":0,"o":"m 965 750 b 700 488 833 750 732 650 b 467 750 697 671 614 750 b 201 488 335 750 233 650 l 201 514 l 197 736 l 181 736 l 181 0 l 201 0 l 201 361 b 467 731 201 546 292 731 b 679 479 601 731 679 656 l 679 0 l 700 0 l 700 361 b 965 731 700 546 790 731 b 1178 479 1100 731 1178 656 l 1178 0 l 1199 0 l 1199 479 b 965 750 1199 668 1115 750 z "},"n":{"ha":853,"x_min":0,"x_max":0,"o":"m 467 750 b 201 488 335 750 233 650 l 201 514 l 197 736 l 181 736 l 181 0 l 201 0 l 201 361 b 467 731 201 546 292 731 b 679 479 601 731 679 656 l 679 0 l 700 0 l 700 479 b 467 750 700 668 617 750 z "},"ń":{"ha":853,"x_min":0,"x_max":0,"o":"m 575 1056 l 547 1056 l 388 893 l 410 893 z m 467 750 b 201 488 335 750 233 650 l 201 514 l 197 736 l 181 736 l 181 0 l 201 0 l 201 361 b 467 731 201 546 292 731 b 679 479 601 731 679 656 l 679 0 l 700 0 l 700 479 b 467 750 700 668 617 750 z "},"ň":{"ha":853,"x_min":0,"x_max":0,"o":"m 447 893 l 614 1063 l 592 1063 l 440 914 l 289 1063 l 267 1063 l 433 893 z m 467 750 b 201 488 335 750 233 650 l 201 514 l 197 736 l 181 736 l 181 0 l 201 0 l 201 361 b 467 731 201 546 292 731 b 679 479 601 731 679 656 l 679 0 l 700 0 l 700 479 b 467 750 700 668 617 750 z "},"ņ":{"ha":853,"x_min":0,"x_max":0,"o":"m 467 750 b 201 488 335 750 233 650 l 201 514 l 197 736 l 181 736 l 181 0 l 201 0 l 201 361 b 467 731 201 546 292 731 b 679 479 601 731 679 656 l 679 0 l 700 0 l 700 479 b 467 750 700 668 617 750 z m 411 -256 l 426 -256 l 411 -368 l 422 -368 l 440 -256 l 440 -93 l 413 -93 z "},"ŋ":{"ha":853,"x_min":0,"x_max":0,"o":"m 467 750 b 201 488 335 750 233 650 l 201 514 l 197 736 l 181 736 l 181 0 l 201 0 l 201 361 b 467 731 201 546 292 731 b 679 479 601 731 679 656 l 679 -97 b 553 -260 679 -194 629 -260 b 454 -242 522 -260 482 -253 l 454 -262 b 553 -278 481 -272 519 -278 b 700 -97 642 -278 700 -206 l 700 479 b 467 750 700 668 617 750 z "},"ñ":{"ha":853,"x_min":0,"x_max":0,"o":"m 351 993 b 525 939 414 993 454 939 b 621 1010 575 939 614 967 l 606 1010 b 529 956 599 978 568 956 b 354 1010 467 956 425 1010 b 258 939 304 1010 265 982 l 274 939 b 351 993 281 971 313 993 z m 467 750 b 201 488 335 750 233 650 l 201 514 l 197 736 l 181 736 l 181 0 l 201 0 l 201 361 b 467 731 201 546 292 731 b 679 479 601 731 679 656 l 679 0 l 700 0 l 700 479 b 467 750 700 668 617 750 z "},"o":{"ha":800,"x_min":0,"x_max":0,"o":"m 400 -14 b 710 368 604 -14 710 115 b 400 750 710 621 604 750 b 90 368 196 750 90 621 b 400 -14 90 115 196 -14 z m 400 3 b 113 368 210 3 113 126 b 400 733 113 610 210 733 b 688 368 590 733 688 610 b 400 3 688 126 590 3 z "},"ó":{"ha":800,"x_min":0,"x_max":0,"o":"m 347 893 l 369 893 l 535 1056 l 507 1056 z m 400 -14 b 710 368 604 -14 710 115 b 400 750 710 621 604 750 b 90 368 196 750 90 621 b 400 -14 90 115 196 -14 z m 400 3 b 113 368 210 3 113 126 b 400 733 113 610 210 733 b 688 368 590 733 688 610 b 400 3 688 126 590 3 z "},"ô":{"ha":800,"x_min":0,"x_max":0,"o":"m 226 893 l 249 893 l 400 1042 l 551 893 l 574 893 l 407 1063 l 393 1063 z m 400 -14 b 710 368 604 -14 710 115 b 400 750 710 621 604 750 b 90 368 196 750 90 621 b 400 -14 90 115 196 -14 z m 400 3 b 113 368 210 3 113 126 b 400 733 113 610 210 733 b 688 368 590 733 688 610 b 400 3 688 126 590 3 z "},"ö":{"ha":800,"x_min":0,"x_max":0,"o":"m 278 893 l 300 893 l 300 1056 l 278 1056 z m 500 893 l 522 893 l 522 1056 l 500 1056 z m 400 -14 b 710 368 604 -14 710 115 b 400 750 710 621 604 750 b 90 368 196 750 90 621 b 400 -14 90 115 196 -14 z m 400 3 b 113 368 210 3 113 126 b 400 733 113 610 210 733 b 688 368 590 733 688 610 b 400 3 688 126 590 3 z "},"ò":{"ha":800,"x_min":0,"x_max":0,"o":"m 436 893 l 458 893 l 299 1056 l 271 1056 z m 400 -14 b 710 368 604 -14 710 115 b 400 750 710 621 604 750 b 90 368 196 750 90 621 b 400 -14 90 115 196 -14 z m 400 3 b 113 368 210 3 113 126 b 400 733 113 610 210 733 b 688 368 590 733 688 610 b 400 3 688 126 590 3 z "},"ő":{"ha":800,"x_min":0,"x_max":0,"o":"m 292 893 l 314 893 l 424 1056 l 396 1056 z m 431 893 l 453 893 l 563 1056 l 535 1056 z m 400 -14 b 710 368 604 -14 710 115 b 400 750 710 621 604 750 b 90 368 196 750 90 621 b 400 -14 90 115 196 -14 z m 400 3 b 113 368 210 3 113 126 b 400 733 113 610 210 733 b 688 368 590 733 688 610 b 400 3 688 126 590 3 z "},"ō":{"ha":800,"x_min":0,"x_max":0,"o":"m 204 967 l 594 967 l 594 982 l 204 982 z m 400 -14 b 710 368 604 -14 710 115 b 400 750 710 621 604 750 b 90 368 196 750 90 621 b 400 -14 90 115 196 -14 z m 400 3 b 113 368 210 3 113 126 b 400 733 113 610 210 733 b 688 368 590 733 688 610 b 400 3 688 126 590 3 z "},"ø":{"ha":800,"x_min":0,"x_max":0,"o":"m 613 674 l 690 792 l 665 792 l 597 688 b 400 750 547 729 482 750 b 90 368 196 750 90 621 b 188 63 90 228 122 125 l 110 -56 l 135 -56 l 203 49 b 400 -14 253 7 318 -14 b 710 368 604 -14 710 115 b 613 674 710 508 678 611 z m 113 368 b 400 733 113 610 210 733 b 586 672 478 733 540 713 l 199 79 b 113 368 142 140 113 236 z m 400 3 b 214 64 322 3 260 24 l 601 657 b 688 368 658 596 688 500 b 400 3 688 126 590 3 z "},"õ":{"ha":800,"x_min":0,"x_max":0,"o":"m 233 939 b 311 993 240 971 272 993 b 485 939 374 993 414 939 b 581 1010 535 939 574 967 l 565 1010 b 489 956 558 978 528 956 b 314 1010 426 956 385 1010 b 218 939 264 1010 225 982 z m 400 -14 b 710 368 604 -14 710 115 b 400 750 710 621 604 750 b 90 368 196 750 90 621 b 400 -14 90 115 196 -14 z m 400 3 b 113 368 210 3 113 126 b 400 733 113 610 210 733 b 688 368 590 733 688 610 b 400 3 688 126 590 3 z "},"œ":{"ha":1371,"x_min":0,"x_max":0,"o":"m 1267 239 b 999 3 1243 83 1153 3 b 710 369 792 3 711 128 l 1282 369 b 1286 418 1285 390 1286 407 b 999 757 1286 642 1203 757 b 697 501 817 757 725 671 b 400 750 665 667 565 750 b 90 368 196 750 90 621 b 400 -14 90 115 196 -14 b 699 240 567 -14 667 72 b 999 -14 728 72 819 -14 b 1288 239 1172 -14 1261 72 z m 999 740 b 1265 388 1190 740 1275 619 l 710 388 b 999 740 713 621 794 740 z m 400 3 b 113 368 210 3 113 126 b 400 733 113 610 210 733 b 688 368 590 733 688 610 b 400 3 688 126 590 3 z "},"p":{"ha":865,"x_min":0,"x_max":0,"o":"m 482 750 b 201 515 335 750 238 664 l 197 736 l 181 736 l 181 -278 l 201 -278 l 201 229 b 482 -14 238 75 335 -14 b 775 368 669 -14 775 124 b 482 750 775 613 669 750 z m 482 3 b 201 375 303 3 201 136 b 482 733 201 604 303 733 b 753 368 656 733 753 601 b 482 3 753 135 656 3 z "},"þ":{"ha":865,"x_min":0,"x_max":0,"o":"m 482 750 b 201 515 335 750 238 664 l 201 1056 l 181 1056 l 181 -278 l 201 -278 l 201 229 b 482 -14 238 75 335 -14 b 775 368 669 -14 775 124 b 482 750 775 613 669 750 z m 482 3 b 201 375 303 3 201 136 b 482 733 201 604 303 733 b 753 368 656 733 753 601 b 482 3 753 135 656 3 z "},"q":{"ha":865,"x_min":0,"x_max":0,"o":"m 668 736 l 664 515 b 383 750 628 664 531 750 b 90 368 196 750 90 613 b 383 -14 90 124 196 -14 b 664 229 531 -14 628 75 l 664 -278 l 685 -278 l 685 736 z m 383 3 b 113 368 210 3 113 135 b 383 733 113 601 210 733 b 664 375 563 733 664 604 b 383 3 664 136 563 3 z "},"r":{"ha":533,"x_min":0,"x_max":0,"o":"m 414 750 b 200 517 286 750 219 658 l 197 736 l 181 736 l 181 0 l 201 0 l 201 347 b 410 731 201 496 224 731 b 506 717 439 731 469 726 l 506 736 b 414 750 472 746 442 750 z "},"ŕ":{"ha":533,"x_min":0,"x_max":0,"o":"m 457 1056 l 429 1056 l 269 893 l 292 893 z m 414 750 b 200 517 286 750 219 658 l 197 736 l 181 736 l 181 0 l 201 0 l 201 347 b 410 731 201 496 224 731 b 506 717 439 731 469 726 l 506 736 b 414 750 472 746 442 750 z "},"ř":{"ha":533,"x_min":0,"x_max":0,"o":"m 329 893 l 496 1063 l 474 1063 l 322 914 l 171 1063 l 149 1063 l 315 893 z m 414 750 b 200 517 286 750 219 658 l 197 736 l 181 736 l 181 0 l 201 0 l 201 347 b 410 731 201 496 224 731 b 506 717 439 731 469 726 l 506 736 b 414 750 472 746 442 750 z "},"ŗ":{"ha":533,"x_min":0,"x_max":0,"o":"m 414 750 b 200 517 286 750 219 658 l 197 736 l 181 736 l 181 0 l 201 0 l 201 347 b 410 731 201 496 224 731 b 506 717 439 731 469 726 l 506 736 b 414 750 472 746 442 750 z m 265 -256 l 281 -256 l 265 -368 l 276 -368 l 294 -256 l 294 -93 l 267 -93 z "},"s":{"ha":703,"x_min":0,"x_max":0,"o":"m 358 -14 b 615 174 521 -14 615 54 b 350 389 615 331 481 358 b 121 561 206 424 121 444 b 340 732 121 676 204 732 b 578 535 499 732 578 664 l 597 535 b 340 749 597 674 508 749 b 100 558 183 749 100 676 b 344 371 100 428 204 403 b 596 171 500 336 596 303 b 360 3 596 68 514 3 b 99 235 176 3 99 75 l 79 235 b 358 -14 79 64 163 -14 z "},"ś":{"ha":703,"x_min":0,"x_max":0,"o":"m 299 893 l 321 893 l 486 1056 l 458 1056 z m 358 -14 b 615 174 521 -14 615 54 b 350 389 615 331 481 358 b 121 561 206 424 121 444 b 340 732 121 676 204 732 b 578 535 499 732 578 664 l 597 535 b 340 749 597 674 508 749 b 100 558 183 749 100 676 b 344 371 100 428 204 403 b 596 171 500 336 596 303 b 360 3 596 68 514 3 b 99 235 176 3 99 75 l 79 235 b 358 -14 79 64 163 -14 z "},"š":{"ha":703,"x_min":0,"x_max":0,"o":"m 344 893 l 358 893 l 525 1063 l 503 1063 l 351 914 l 200 1063 l 178 1063 z m 358 -14 b 615 174 521 -14 615 54 b 350 389 615 331 481 358 b 121 561 206 424 121 444 b 340 732 121 676 204 732 b 578 535 499 732 578 664 l 597 535 b 340 749 597 674 508 749 b 100 558 183 749 100 676 b 344 371 100 428 204 403 b 596 171 500 336 596 303 b 360 3 596 68 514 3 b 99 235 176 3 99 75 l 79 235 b 358 -14 79 64 163 -14 z "},"ş":{"ha":703,"x_min":0,"x_max":0,"o":"m 358 -14 b 615 174 521 -14 615 54 b 350 389 615 331 481 358 b 121 561 206 424 121 444 b 340 732 121 676 204 732 b 578 535 499 732 578 664 l 597 535 b 340 749 597 674 508 749 b 100 558 183 749 100 676 b 344 371 100 428 204 403 b 596 171 500 336 596 303 b 360 3 596 68 514 3 b 99 235 176 3 99 75 l 79 235 b 328 -14 79 72 154 -6 l 296 -82 l 303 -92 b 438 -183 392 -99 438 -131 b 338 -260 438 -235 393 -260 b 211 -207 293 -260 244 -242 l 203 -222 b 336 -278 233 -258 286 -278 b 458 -182 400 -278 458 -249 b 319 -75 458 -122 413 -86 l 349 -14 z "},"ș":{"ha":703,"x_min":0,"x_max":0,"o":"m 358 -14 b 615 174 521 -14 615 54 b 350 389 615 331 481 358 b 121 561 206 424 121 444 b 340 732 121 676 204 732 b 578 535 499 732 578 664 l 597 535 b 340 749 597 674 508 749 b 100 558 183 749 100 676 b 344 371 100 428 204 403 b 596 171 500 336 596 303 b 360 3 596 68 514 3 b 99 235 176 3 99 75 l 79 235 b 358 -14 79 64 163 -14 z m 329 -368 l 340 -368 l 358 -256 l 358 -93 l 331 -93 l 329 -256 l 344 -256 z "},"ß":{"ha":797,"x_min":0,"x_max":0,"o":"m 431 554 b 600 865 431 656 600 711 b 394 1083 600 994 519 1083 b 181 833 267 1083 181 985 l 181 736 l 49 736 l 49 719 l 181 719 l 181 0 l 201 0 l 201 833 b 394 1064 201 971 279 1061 b 578 865 504 1064 578 985 b 408 554 578 713 408 665 b 719 174 408 375 719 386 b 536 6 719 65 646 6 b 375 40 493 6 428 19 l 375 21 b 536 -14 428 0 493 -14 b 742 174 660 -14 742 61 b 431 554 742 397 431 393 z "},"t":{"ha":522,"x_min":0,"x_max":0,"o":"m 379 3 b 172 244 256 3 172 72 l 172 721 l 474 721 l 474 736 l 172 736 l 172 931 l 158 931 l 153 736 l 28 736 l 28 721 l 153 721 l 153 244 b 375 -14 153 61 242 -14 b 488 4 419 -14 464 -7 l 488 18 b 379 3 449 8 406 3 z "},"ŧ":{"ha":522,"x_min":0,"x_max":0,"o":"m 379 3 b 172 244 256 3 172 72 l 172 388 l 446 388 l 446 403 l 172 403 l 172 721 l 474 721 l 474 736 l 172 736 l 172 931 l 158 931 l 153 736 l 28 736 l 28 721 l 153 721 l 153 403 l 28 403 l 28 388 l 153 388 l 153 244 b 375 -14 153 61 242 -14 b 488 4 419 -14 464 -7 l 488 18 b 379 3 449 8 406 3 z "},"ť":{"ha":522,"x_min":0,"x_max":0,"o":"m 346 1056 l 322 1056 l 281 796 l 296 796 z m 379 3 b 172 244 256 3 172 72 l 172 721 l 474 721 l 474 736 l 172 736 l 172 931 l 158 931 l 153 736 l 28 736 l 28 721 l 153 721 l 153 244 b 375 -14 153 61 242 -14 b 488 4 419 -14 464 -7 l 488 18 b 379 3 449 8 406 3 z "},"ţ":{"ha":522,"x_min":0,"x_max":0,"o":"m 375 -14 b 488 4 419 -14 464 -7 l 488 18 b 379 3 449 8 406 3 b 172 244 256 3 172 72 l 172 721 l 474 721 l 474 736 l 172 736 l 172 931 l 158 931 l 153 736 l 28 736 l 28 721 l 153 721 l 153 244 b 297 -4 153 100 208 22 l 260 -82 l 267 -92 b 401 -183 356 -99 401 -131 b 301 -260 401 -235 357 -260 b 175 -207 257 -260 208 -242 l 167 -222 b 300 -278 197 -258 250 -278 b 422 -182 364 -278 422 -249 b 283 -75 422 -122 376 -86 l 315 -8 b 375 -14 335 -12 354 -14 z "},"ț":{"ha":522,"x_min":0,"x_max":0,"o":"m 379 3 b 172 244 256 3 172 72 l 172 721 l 474 721 l 474 736 l 172 736 l 172 931 l 158 931 l 153 736 l 28 736 l 28 721 l 153 721 l 153 244 b 375 -14 153 61 242 -14 b 488 4 419 -14 464 -7 l 488 18 b 379 3 449 8 406 3 z m 293 -256 l 308 -256 l 293 -368 l 304 -368 l 322 -256 l 322 -93 l 294 -93 z "},"u":{"ha":853,"x_min":0,"x_max":0,"o":"m 651 736 l 651 375 b 386 6 651 190 561 6 b 174 257 251 6 174 81 l 174 736 l 153 736 l 153 257 b 386 -14 153 68 236 -14 b 651 249 518 -14 619 86 l 651 222 l 656 0 l 672 0 l 672 736 z "},"ú":{"ha":853,"x_min":0,"x_max":0,"o":"m 547 1056 l 519 1056 l 360 893 l 382 893 z m 651 736 l 651 375 b 386 6 651 190 561 6 b 174 257 251 6 174 81 l 174 736 l 153 736 l 153 257 b 386 -14 153 68 236 -14 b 651 249 518 -14 619 86 l 651 222 l 656 0 l 672 0 l 672 736 z "},"ǔ":{"ha":853,"x_min":0,"x_max":0,"o":"m 419 893 l 586 1063 l 564 1063 l 413 914 l 261 1063 l 239 1063 l 406 893 z m 651 736 l 651 375 b 386 6 651 190 561 6 b 174 257 251 6 174 81 l 174 736 l 153 736 l 153 257 b 386 -14 153 68 236 -14 b 651 249 518 -14 619 86 l 651 222 l 656 0 l 672 0 l 672 736 z "},"û":{"ha":853,"x_min":0,"x_max":0,"o":"m 413 1042 l 564 893 l 586 893 l 419 1063 l 406 1063 l 239 893 l 261 893 z m 651 736 l 651 375 b 386 6 651 190 561 6 b 174 257 251 6 174 81 l 174 736 l 153 736 l 153 257 b 386 -14 153 68 236 -14 b 651 249 518 -14 619 86 l 651 222 l 656 0 l 672 0 l 672 736 z "},"ü":{"ha":853,"x_min":0,"x_max":0,"o":"m 313 1056 l 290 1056 l 290 893 l 313 893 z m 535 1056 l 513 1056 l 513 893 l 535 893 z m 651 736 l 651 375 b 386 6 651 190 561 6 b 174 257 251 6 174 81 l 174 736 l 153 736 l 153 257 b 386 -14 153 68 236 -14 b 651 249 518 -14 619 86 l 651 222 l 656 0 l 672 0 l 672 736 z "},"ù":{"ha":853,"x_min":0,"x_max":0,"o":"m 471 893 l 311 1056 l 283 1056 l 449 893 z m 651 736 l 651 375 b 386 6 651 190 561 6 b 174 257 251 6 174 81 l 174 736 l 153 736 l 153 257 b 386 -14 153 68 236 -14 b 651 249 518 -14 619 86 l 651 222 l 656 0 l 672 0 l 672 736 z "},"ű":{"ha":853,"x_min":0,"x_max":0,"o":"m 436 1056 l 408 1056 l 304 893 l 326 893 z m 575 1056 l 547 1056 l 443 893 l 465 893 z m 651 736 l 651 375 b 386 6 651 190 561 6 b 174 257 251 6 174 81 l 174 736 l 153 736 l 153 257 b 386 -14 153 68 236 -14 b 651 249 518 -14 619 86 l 651 222 l 656 0 l 672 0 l 672 736 z "},"ū":{"ha":853,"x_min":0,"x_max":0,"o":"m 607 982 l 217 982 l 217 967 l 607 967 z m 651 736 l 651 375 b 386 6 651 190 561 6 b 174 257 251 6 174 81 l 174 736 l 153 736 l 153 257 b 386 -14 153 68 236 -14 b 651 249 518 -14 619 86 l 651 222 l 656 0 l 672 0 l 672 736 z "},"ų":{"ha":853,"x_min":0,"x_max":0,"o":"m 597 -232 b 503 -156 540 -232 503 -201 b 672 0 503 -83 571 -21 l 672 736 l 651 736 l 651 375 b 386 6 651 190 561 6 b 174 257 251 6 174 81 l 174 736 l 153 736 l 153 257 b 386 -14 153 68 236 -14 b 651 249 518 -14 619 86 l 651 222 l 656 13 b 482 -157 550 -10 482 -78 b 599 -250 482 -212 529 -250 b 700 -222 633 -250 674 -239 l 700 -207 b 597 -232 672 -222 632 -232 z "},"ů":{"ha":853,"x_min":0,"x_max":0,"o":"m 413 825 b 553 967 497 825 553 882 b 413 1107 553 1051 497 1107 b 271 967 328 1107 271 1051 b 413 825 271 882 328 825 z m 413 1090 b 532 967 483 1090 532 1040 b 413 843 532 893 483 844 b 292 967 340 844 292 893 b 413 1090 292 1040 340 1090 z m 651 736 l 651 375 b 386 6 651 190 561 6 b 174 257 251 6 174 81 l 174 736 l 153 736 l 153 257 b 386 -14 153 68 236 -14 b 651 249 518 -14 619 86 l 651 222 l 656 0 l 672 0 l 672 736 z "},"v":{"ha":782,"x_min":0,"x_max":0,"o":"m 381 0 l 406 0 l 699 736 l 679 736 l 393 17 l 103 736 l 83 736 z "},"w":{"ha":1129,"x_min":0,"x_max":0,"o":"m 319 0 l 346 0 l 571 707 l 790 0 l 817 0 l 1046 736 l 1026 736 l 804 17 l 582 736 l 561 736 l 333 17 l 104 736 l 83 736 z "},"ẃ":{"ha":1129,"x_min":0,"x_max":0,"o":"m 515 893 l 538 893 l 703 1056 l 675 1056 z m 319 0 l 346 0 l 571 707 l 790 0 l 817 0 l 1046 736 l 1026 736 l 804 17 l 582 736 l 561 736 l 333 17 l 104 736 l 83 736 z "},"ŵ":{"ha":1129,"x_min":0,"x_max":0,"o":"m 394 893 l 417 893 l 568 1042 l 719 893 l 742 893 l 575 1063 l 561 1063 z m 319 0 l 346 0 l 571 707 l 790 0 l 817 0 l 1046 736 l 1026 736 l 804 17 l 582 736 l 561 736 l 333 17 l 104 736 l 83 736 z "},"ẅ":{"ha":1129,"x_min":0,"x_max":0,"o":"m 446 893 l 468 893 l 468 1056 l 446 1056 z m 668 893 l 690 893 l 690 1056 l 668 1056 z m 319 0 l 346 0 l 571 707 l 790 0 l 817 0 l 1046 736 l 1026 736 l 804 17 l 582 736 l 561 736 l 333 17 l 104 736 l 83 736 z "},"ẁ":{"ha":1129,"x_min":0,"x_max":0,"o":"m 604 893 l 626 893 l 467 1056 l 439 1056 z m 319 0 l 346 0 l 571 707 l 790 0 l 817 0 l 1046 736 l 1026 736 l 804 17 l 582 736 l 561 736 l 333 17 l 104 736 l 83 736 z "},"x":{"ha":688,"x_min":0,"x_max":0,"o":"m 631 0 l 363 376 l 619 736 l 596 736 l 351 393 l 107 736 l 81 736 l 336 378 l 68 0 l 92 0 l 349 360 l 606 0 z "},"y":{"ha":772,"x_min":0,"x_max":0,"o":"m 274 -278 l 293 -278 l 689 736 l 668 736 l 389 17 l 107 736 l 83 736 l 379 -8 z "},"ý":{"ha":772,"x_min":0,"x_max":0,"o":"m 329 893 l 351 893 l 517 1056 l 489 1056 z m 274 -278 l 293 -278 l 689 736 l 668 736 l 389 17 l 107 736 l 83 736 l 379 -8 z "},"ŷ":{"ha":772,"x_min":0,"x_max":0,"o":"m 208 893 l 231 893 l 382 1042 l 533 893 l 556 893 l 389 1063 l 375 1063 z m 274 -278 l 293 -278 l 689 736 l 668 736 l 389 17 l 107 736 l 83 736 l 379 -8 z "},"ÿ":{"ha":772,"x_min":0,"x_max":0,"o":"m 260 893 l 282 893 l 282 1056 l 260 1056 z m 482 893 l 504 893 l 504 1056 l 482 1056 z m 274 -278 l 293 -278 l 689 736 l 668 736 l 389 17 l 107 736 l 83 736 l 379 -8 z "},"ỳ":{"ha":772,"x_min":0,"x_max":0,"o":"m 418 893 l 440 893 l 281 1056 l 253 1056 z m 274 -278 l 293 -278 l 689 736 l 668 736 l 389 17 l 107 736 l 83 736 l 379 -8 z "},"z":{"ha":668,"x_min":0,"x_max":0,"o":"m 72 15 l 601 721 l 601 736 l 60 736 l 60 721 l 579 721 l 49 15 l 49 0 l 619 0 l 619 15 z "},"ź":{"ha":668,"x_min":0,"x_max":0,"o":"m 469 1056 l 442 1056 l 282 893 l 304 893 z m 72 15 l 601 721 l 601 736 l 60 736 l 60 721 l 579 721 l 49 15 l 49 0 l 619 0 l 619 15 z "},"ž":{"ha":668,"x_min":0,"x_max":0,"o":"m 342 893 l 508 1063 l 486 1063 l 335 914 l 183 1063 l 161 1063 l 328 893 z m 72 15 l 601 721 l 601 736 l 60 736 l 60 721 l 579 721 l 49 15 l 49 0 l 619 0 l 619 15 z "},"ż":{"ha":668,"x_min":0,"x_max":0,"o":"m 346 1056 l 324 1056 l 324 893 l 346 893 z m 72 15 l 601 721 l 601 736 l 60 736 l 60 721 l 579 721 l 49 15 l 49 0 l 619 0 l 619 15 z "},"ﬁ":{"ha":856,"x_min":0,"x_max":0,"o":"m 181 861 l 181 736 l 49 736 l 49 719 l 181 719 l 181 0 l 201 0 l 201 719 l 460 719 l 460 736 l 201 736 l 201 861 b 381 1064 201 994 263 1064 b 501 1036 417 1064 457 1054 l 501 1056 b 381 1083 458 1074 418 1083 b 181 861 249 1083 181 1008 z m 653 1056 l 653 893 l 675 893 l 675 1056 z m 654 0 l 675 0 l 675 736 l 654 736 z "},"ﬂ":{"ha":856,"x_min":0,"x_max":0,"o":"m 181 861 l 181 736 l 49 736 l 49 719 l 181 719 l 181 0 l 201 0 l 201 719 l 460 719 l 460 736 l 201 736 l 201 861 b 381 1064 201 994 263 1064 b 501 1036 417 1064 457 1054 l 501 1056 b 381 1083 458 1074 418 1083 b 181 861 249 1083 181 1008 z m 654 1056 l 654 0 l 675 0 l 675 1056 z "},"ª":{"ha":486,"x_min":0,"x_max":0,"o":"m 431 500 b 411 654 418 542 411 593 l 411 815 b 242 1000 411 938 354 1000 b 74 840 150 1000 74 946 l 92 840 b 242 983 92 935 161 983 b 393 815 342 983 393 926 l 393 771 l 225 763 b 56 622 113 757 56 713 b 218 490 56 535 111 490 b 399 585 311 490 372 522 b 413 500 400 549 407 521 z m 218 508 b 74 622 122 508 74 549 b 225 747 74 700 125 743 l 393 756 l 393 611 b 218 508 378 546 318 508 z "},"º":{"ha":497,"x_min":0,"x_max":0,"o":"m 249 490 b 456 746 385 490 456 576 b 249 1000 456 914 385 1000 b 42 746 113 1000 42 914 b 249 490 42 576 113 490 z m 249 506 b 61 746 125 506 61 588 b 249 985 61 904 125 985 b 436 746 372 985 436 904 b 249 506 436 588 372 506 z "},"Δ":{"ha":876,"x_min":0,"x_max":0,"o":"m 69 0 l 807 0 l 807 15 l 451 986 l 424 986 l 69 15 z m 93 18 l 438 968 l 783 18 z "},"Ω":{"ha":1058,"x_min":0,"x_max":0,"o":"m 940 521 b 529 1000 940 838 800 1000 b 118 521 258 1000 118 838 b 406 17 118 271 215 101 l 118 17 l 118 0 l 432 0 l 432 25 b 140 521 239 106 140 272 b 529 981 140 825 272 981 b 918 521 786 981 918 825 b 626 25 918 272 819 106 l 626 0 l 940 0 l 940 17 l 653 17 b 940 521 843 100 940 271 z "},"μ":{"ha":846,"x_min":0,"x_max":0,"o":"m 700 0 b 672 301 682 81 672 182 l 672 736 l 651 736 l 651 375 b 386 6 651 190 561 6 b 174 257 251 6 174 81 l 174 736 l 153 736 l 153 -278 l 175 -278 l 168 136 b 386 -14 199 32 274 -14 b 654 263 522 -14 625 92 b 679 0 654 147 668 58 z "},"π":{"ha":807,"x_min":0,"x_max":0,"o":"m 167 0 l 188 0 l 215 719 l 610 719 l 610 315 b 638 0 610 215 621 89 l 661 0 b 631 315 643 79 631 206 l 631 719 l 765 719 l 765 736 l 42 736 l 42 719 l 194 719 z "},"¹":{"ha":400,"x_min":0,"x_max":0,"o":"m 204 1007 b 28 947 161 975 90 951 l 28 931 b 200 982 96 935 164 956 l 200 514 l 219 514 l 219 1007 z "},"²":{"ha":494,"x_min":0,"x_max":0,"o":"m 90 514 l 411 514 l 411 529 l 108 526 l 115 529 b 406 881 263 638 406 772 b 247 1014 406 969 351 1014 b 90 872 143 1014 90 965 l 111 872 b 247 996 111 954 158 996 b 383 879 338 996 383 957 b 90 529 383 772 244 646 z "},"³":{"ha":518,"x_min":0,"x_max":0,"o":"m 260 507 b 428 642 371 507 428 553 b 318 768 428 711 392 754 b 417 886 383 783 417 824 b 260 1014 417 971 363 1014 b 101 872 156 1014 101 965 l 122 872 b 260 996 122 954 169 996 b 396 886 349 996 396 958 b 260 776 396 811 349 776 l 199 776 l 199 760 l 260 760 b 407 642 357 760 407 721 b 260 525 407 565 357 525 b 111 656 161 525 111 569 l 90 656 b 260 507 90 557 147 507 z "},"⁴":{"ha":393,"x_min":0,"x_max":0,"o":"m 272 514 l 293 514 l 293 649 l 393 649 l 393 667 l 293 667 l 293 1013 l 275 1013 l 14 667 l 14 649 l 272 649 z m 38 667 l 272 981 l 272 667 z "},"⁄":{"ha":813,"x_min":0,"x_max":0,"o":"m 0 0 l 26 0 l 813 986 l 788 986 z "},"½":{"ha":1029,"x_min":0,"x_max":0,"o":"m 228 982 l 228 514 l 247 514 l 247 1007 l 232 1007 b 56 947 189 975 118 951 l 56 931 b 228 982 124 935 192 956 z m 843 986 l 56 0 l 82 0 l 868 986 z m 643 13 l 650 15 b 940 367 797 124 940 258 b 782 500 940 456 886 500 b 625 358 678 500 625 451 l 646 358 b 782 482 646 440 693 482 b 918 365 872 482 918 443 b 625 15 918 258 779 132 l 625 0 l 946 0 l 946 15 z "},"¼":{"ha":953,"x_min":0,"x_max":0,"o":"m 228 982 l 228 514 l 247 514 l 247 1007 l 232 1007 b 56 947 189 975 118 951 l 56 931 b 228 982 124 935 192 956 z m 843 986 l 56 0 l 82 0 l 868 986 z m 811 153 l 811 499 l 793 499 l 532 153 l 532 135 l 790 135 l 790 0 l 811 0 l 811 135 l 911 135 l 911 153 z m 790 153 l 556 153 l 790 467 z "},"¾":{"ha":1071,"x_min":0,"x_max":0,"o":"m 260 507 b 428 642 371 507 428 553 b 318 768 428 711 392 754 b 417 886 383 783 417 824 b 260 1014 417 971 363 1014 b 101 872 156 1014 101 965 l 122 872 b 260 996 122 954 169 996 b 396 886 349 996 396 958 b 260 776 396 811 349 776 l 199 776 l 199 760 l 260 760 b 407 642 357 760 407 721 b 260 525 407 565 357 525 b 111 656 161 525 111 569 l 90 656 b 260 507 90 557 147 507 z m 174 0 l 200 0 l 986 986 l 961 986 z m 908 0 l 929 0 l 929 135 l 1029 135 l 1029 153 l 929 153 l 929 499 l 911 499 l 650 153 l 650 135 l 908 135 z m 674 153 l 908 467 l 908 153 z "},".":{"ha":361,"x_min":0,"x_max":0,"o":"m 167 0 l 194 0 l 194 139 l 167 139 z "},",":{"ha":361,"x_min":0,"x_max":0,"o":"m 139 -160 l 154 -160 l 194 0 l 194 167 l 167 167 l 167 0 l 172 0 z "},":":{"ha":361,"x_min":0,"x_max":0,"o":"m 167 597 l 194 597 l 194 736 l 167 736 z m 167 0 l 194 0 l 194 139 l 167 139 z "},";":{"ha":361,"x_min":0,"x_max":0,"o":"m 167 597 l 194 597 l 194 736 l 167 736 z m 139 -160 l 154 -160 l 194 0 l 194 139 l 167 139 l 167 0 l 172 0 z "},"…":{"ha":889,"x_min":0,"x_max":0,"o":"m 167 0 l 194 0 l 194 139 l 167 139 z m 431 0 l 458 0 l 458 139 l 431 139 z m 694 0 l 722 0 l 722 139 l 694 139 z "},"!":{"ha":389,"x_min":0,"x_max":0,"o":"m 186 292 l 203 292 l 206 736 l 206 986 l 183 986 l 183 736 z m 181 0 l 208 0 l 208 139 l 181 139 z "},"¡":{"ha":389,"x_min":0,"x_max":0,"o":"m 181 597 l 208 597 l 208 736 l 181 736 z m 183 -250 l 206 -250 l 206 0 l 203 444 l 186 444 l 183 0 z "},"?":{"ha":669,"x_min":0,"x_max":0,"o":"m 321 292 l 342 292 l 342 374 b 572 774 342 524 572 546 b 322 999 572 919 472 999 b 69 760 171 999 69 903 l 90 760 b 322 979 90 892 183 979 b 550 774 458 979 550 908 b 321 369 550 554 321 540 z m 315 0 l 343 0 l 343 139 l 315 139 z "},"¿":{"ha":669,"x_min":0,"x_max":0,"o":"m 326 597 l 354 597 l 354 736 l 326 736 z m 347 -262 b 600 -24 499 -262 600 -167 l 579 -24 b 347 -243 579 -156 486 -243 b 119 -37 211 -243 119 -172 b 349 367 119 182 349 196 l 349 444 l 328 444 l 328 363 b 97 -37 328 213 97 190 b 347 -262 97 -183 197 -262 z "},"·":{"ha":472,"x_min":0,"x_max":0,"o":"m 222 431 l 250 431 l 250 597 l 222 597 z "},"•":{"ha":618,"x_min":0,"x_max":0,"o":"m 222 444 l 396 444 l 396 611 l 222 611 z "},"*":{"ha":539,"x_min":0,"x_max":0,"o":"m 131 528 l 268 726 l 407 526 l 425 540 l 278 733 l 511 803 l 504 824 l 275 744 l 281 986 l 258 986 l 264 744 l 35 825 l 28 804 l 261 735 l 113 540 z "},"#":{"ha":819,"x_min":0,"x_max":0,"o":"m 796 590 l 799 608 l 601 608 l 646 875 l 626 875 l 582 608 l 296 608 l 340 875 l 321 875 l 276 608 l 76 608 l 74 590 l 274 590 l 224 289 l 24 289 l 21 271 l 221 271 l 176 0 l 196 0 l 240 271 l 526 271 l 482 0 l 501 0 l 546 271 l 743 271 l 746 289 l 549 289 l 599 590 z m 529 289 l 243 289 l 293 590 l 579 590 z "},"/":{"ha":583,"x_min":0,"x_max":0,"o":"m 28 -278 l 50 -278 l 556 1111 l 533 1111 z "},"\\":{"ha":583,"x_min":0,"x_max":0,"o":"m 533 -278 l 556 -278 l 50 1111 l 28 1111 z "},"(":{"ha":546,"x_min":0,"x_max":0,"o":"m 361 -139 l 379 -139 b 189 490 253 40 189 267 b 379 1111 189 714 251 936 l 361 1111 b 167 490 231 944 167 718 b 361 -139 167 261 232 31 z "},")":{"ha":546,"x_min":0,"x_max":0,"o":"m 167 -139 l 185 -139 b 379 490 314 31 379 261 b 185 1111 379 718 315 944 l 167 1111 b 357 490 294 936 357 714 b 167 -139 357 267 293 40 z "},"{":{"ha":583,"x_min":0,"x_max":0,"o":"m 364 -139 l 417 -139 l 417 -121 l 364 -121 b 232 26 285 -121 232 -62 b 251 349 232 125 251 242 b 151 486 251 415 210 474 b 251 624 210 499 251 557 b 232 947 251 731 232 849 b 364 1094 232 1036 285 1094 l 417 1094 l 417 1113 l 364 1113 b 211 947 272 1113 211 1046 b 231 624 211 836 231 736 b 111 493 231 549 179 493 l 111 479 b 231 349 179 479 231 424 b 211 26 231 236 211 138 b 364 -139 211 -72 272 -139 z "},"}":{"ha":583,"x_min":0,"x_max":0,"o":"m 167 -139 l 219 -139 b 372 26 311 -139 372 -72 b 353 349 372 138 353 236 b 472 479 353 424 404 479 l 472 493 b 353 624 404 493 353 549 b 372 947 353 736 372 836 b 219 1113 372 1046 311 1113 l 167 1113 l 167 1094 l 219 1094 b 351 947 299 1094 351 1036 b 332 624 351 849 332 731 b 432 486 332 557 374 499 b 332 349 374 474 332 415 b 351 26 332 242 351 125 b 219 -121 351 -62 299 -121 l 167 -121 z "},"[":{"ha":667,"x_min":0,"x_max":0,"o":"m 250 -139 l 556 -139 l 556 -121 l 271 -121 l 271 1093 l 556 1093 l 556 1111 l 250 1111 z "},"]":{"ha":667,"x_min":0,"x_max":0,"o":"m 111 -139 l 417 -139 l 417 1111 l 111 1111 l 111 1093 l 396 1093 l 396 -121 l 111 -121 z "},"-":{"ha":653,"x_min":0,"x_max":0,"o":"m 139 514 l 514 514 l 514 532 l 139 532 z "},"­":{"ha":833,"x_min":0,"x_max":0,"o":"m 139 514 l 514 514 l 514 532 l 139 532 z "},"–":{"ha":1042,"x_min":0,"x_max":0,"o":"m 139 499 l 903 500 l 903 518 l 139 517 z "},"—":{"ha":1250,"x_min":0,"x_max":0,"o":"m 139 499 l 1111 500 l 1111 518 l 139 517 z "},"_":{"ha":833,"x_min":0,"x_max":0,"o":"m 69 -143 l 764 -142 l 764 -124 l 69 -125 z "},"‚":{"ha":361,"x_min":0,"x_max":0,"o":"m 139 -160 l 154 -160 l 194 0 l 194 167 l 167 167 l 167 0 l 172 0 z "},"„":{"ha":611,"x_min":0,"x_max":0,"o":"m 139 -160 l 154 -160 l 194 0 l 194 167 l 167 167 l 167 0 l 172 0 z m 389 -160 l 404 -160 l 444 0 l 444 167 l 417 167 l 417 0 l 422 0 z "},"“":{"ha":500,"x_min":0,"x_max":0,"o":"m 167 757 l 194 757 l 194 896 l 189 896 l 222 1056 l 207 1056 l 167 896 z m 306 757 l 333 757 l 333 896 l 328 896 l 361 1056 l 346 1056 l 306 896 z "},"”":{"ha":500,"x_min":0,"x_max":0,"o":"m 139 757 l 154 757 l 194 917 l 194 1056 l 167 1056 l 167 917 l 172 917 z m 278 757 l 293 757 l 333 917 l 333 1056 l 306 1056 l 306 917 l 311 917 z "},"‘":{"ha":361,"x_min":0,"x_max":0,"o":"m 167 757 l 194 757 l 194 896 l 189 896 l 222 1056 l 207 1056 l 167 896 z "},"’":{"ha":361,"x_min":0,"x_max":0,"o":"m 139 757 l 154 757 l 194 917 l 194 1056 l 167 1056 l 167 917 l 172 917 z "},"«":{"ha":711,"x_min":0,"x_max":0,"o":"m 392 736 l 368 736 l 69 368 l 368 0 l 392 0 l 93 369 z m 642 736 l 618 736 l 319 368 l 618 0 l 642 0 l 343 369 z "},"»":{"ha":711,"x_min":0,"x_max":0,"o":"m 93 736 l 69 736 l 368 368 l 69 0 l 93 0 l 392 368 z m 343 736 l 319 736 l 618 368 l 319 0 l 343 0 l 642 368 z "},"‹":{"ha":461,"x_min":0,"x_max":0,"o":"m 392 736 l 368 736 l 69 368 l 368 0 l 392 0 l 93 369 z "},"›":{"ha":461,"x_min":0,"x_max":0,"o":"m 93 736 l 69 736 l 368 368 l 69 0 l 93 0 l 392 368 z "},"\"":{"ha":456,"x_min":0,"x_max":0,"o":"m 146 750 l 157 750 l 164 903 l 164 1056 l 139 1056 l 139 903 z m 299 750 l 310 750 l 317 903 l 317 1056 l 292 1056 l 292 903 z "},"'":{"ha":303,"x_min":0,"x_max":0,"o":"m 146 750 l 157 750 l 164 903 l 164 1056 l 139 1056 l 139 903 z "}," ":{"ha":417,"x_min":0,"x_max":0,"o":""},"¢":{"ha":765,"x_min":0,"x_max":0,"o":"m 689 364 l 668 364 b 403 128 644 210 556 129 l 403 872 b 663 636 557 871 640 792 l 682 636 b 403 889 660 801 575 888 l 403 1111 l 382 1111 l 382 889 b 90 500 174 882 90 750 b 382 111 90 250 174 118 l 382 -125 l 403 -125 l 403 111 b 689 364 575 113 663 199 z m 111 500 b 382 872 111 739 188 865 l 382 128 b 111 500 188 135 111 261 z "},"¤":{"ha":750,"x_min":0,"x_max":0,"o":"m 701 194 l 600 294 b 657 493 638 344 657 411 b 600 693 657 575 638 643 l 700 793 l 688 806 l 589 706 b 375 792 542 761 469 792 b 160 706 281 792 208 761 l 61 804 l 49 792 l 149 692 b 93 493 113 642 93 574 b 150 293 93 411 113 343 l 50 193 l 63 181 l 161 281 b 375 194 208 225 281 194 b 590 281 469 194 542 225 l 689 182 z m 375 211 b 114 493 207 211 114 317 b 375 775 114 669 207 775 b 636 493 543 775 636 669 b 375 211 636 317 543 211 z "},"$":{"ha":874,"x_min":0,"x_max":0,"o":"m 756 242 b 451 517 756 421 604 472 l 451 981 b 715 715 626 974 715 885 l 736 715 b 451 1000 736 897 639 993 l 451 1111 l 431 1111 l 431 1000 b 132 756 235 1000 132 917 b 431 501 132 590 282 544 l 431 6 b 124 311 229 8 124 113 l 104 311 b 431 -14 104 100 215 -11 l 431 -167 l 451 -167 l 451 -14 b 756 242 653 -11 756 76 z m 153 756 b 431 981 153 904 247 981 l 431 522 b 153 756 289 564 153 607 z m 451 6 l 451 494 b 736 242 596 453 736 406 b 451 6 736 89 639 8 z "},"€":{"ha":1043,"x_min":0,"x_max":0,"o":"m 917 311 b 546 6 882 110 756 6 b 144 406 319 6 172 156 l 649 407 l 653 425 l 143 424 b 140 493 142 446 140 469 b 143 575 140 522 142 549 l 681 576 l 683 594 l 144 593 b 553 981 169 857 303 981 b 910 674 756 981 876 876 l 932 674 b 553 1000 897 889 769 1000 b 122 593 288 1000 149 869 l 24 593 l 21 575 l 121 575 b 118 493 119 549 118 522 b 121 424 118 469 119 446 l 3 424 l 0 406 l 122 406 b 546 -14 150 144 306 -14 b 939 311 771 -14 906 97 z "},"ƒ":{"ha":676,"x_min":0,"x_max":0,"o":"m 508 981 b 640 953 549 981 593 971 l 642 972 b 511 1000 596 990 553 1000 b 288 778 379 1000 303 925 l 274 653 l 144 653 l 143 636 l 272 636 l 213 69 b 1 -92 200 -47 140 -92 l 0 -111 b 233 69 154 -111 219 -61 l 293 636 l 582 636 l 583 653 l 294 653 l 308 778 b 508 981 322 911 390 981 z "},"£":{"ha":763,"x_min":0,"x_max":0,"o":"m 133 18 b 192 229 172 89 192 158 b 167 485 192 314 179 400 l 586 486 l 589 504 l 164 503 b 146 708 154 572 146 640 b 421 981 146 872 240 981 b 694 761 585 981 694 893 l 714 761 b 421 1000 714 904 597 1000 b 125 708 228 1000 125 883 b 143 503 125 640 133 571 l 10 503 l 7 485 l 146 485 b 171 229 158 400 171 314 b 104 14 171 157 150 86 l 104 0 l 721 0 l 721 18 z "},"¥":{"ha":832,"x_min":0,"x_max":0,"o":"m 804 986 l 783 986 l 424 418 l 410 417 l 51 986 l 28 986 l 281 586 l 83 586 l 83 568 l 292 568 l 388 417 l 83 417 l 83 399 l 399 399 l 406 388 l 406 0 l 426 0 l 426 388 l 433 400 l 749 400 l 749 418 l 444 418 l 542 569 l 749 569 l 749 588 l 553 588 z "},"+":{"ha":833,"x_min":0,"x_max":0,"o":"m 736 518 l 446 518 l 446 807 l 428 807 l 428 518 l 139 518 l 139 500 l 429 500 l 429 210 l 447 210 l 447 500 l 736 500 z "},"−":{"ha":875,"x_min":0,"x_max":0,"o":"m 139 500 l 736 500 l 736 518 l 139 518 z "},"×":{"ha":658,"x_min":0,"x_max":0,"o":"m 125 290 l 329 496 l 535 292 l 547 304 l 342 508 l 546 714 l 533 726 l 329 521 l 124 725 l 111 713 l 317 508 l 113 303 z "},"÷":{"ha":875,"x_min":0,"x_max":0,"o":"m 424 643 l 451 643 l 451 796 l 424 796 z m 139 500 l 736 500 l 736 518 l 139 518 z m 424 222 l 451 222 l 451 375 l 424 375 z "},"=":{"ha":972,"x_min":0,"x_max":0,"o":"m 139 625 l 833 625 l 833 643 l 139 643 z m 139 344 l 833 344 l 833 363 l 139 363 z "},"≠":{"ha":972,"x_min":0,"x_max":0,"o":"m 833 625 l 833 643 l 582 643 l 701 850 l 686 858 l 563 643 l 139 643 l 139 625 l 551 625 l 401 363 l 139 363 l 139 344 l 390 344 l 271 136 l 286 128 l 411 344 l 833 344 l 833 363 l 421 363 l 572 625 z "},">":{"ha":688,"x_min":0,"x_max":0,"o":"m 83 806 l 83 785 l 608 493 l 83 201 l 83 181 l 632 486 l 632 500 z "},"<":{"ha":688,"x_min":0,"x_max":0,"o":"m 604 806 l 56 500 l 56 486 l 604 181 l 604 201 l 79 493 l 604 785 z "},"≥":{"ha":688,"x_min":0,"x_max":0,"o":"m 83 806 l 83 785 l 608 493 l 83 201 l 83 181 l 632 486 l 632 500 z m 83 67 l 632 67 l 632 85 l 83 85 z "},"≤":{"ha":688,"x_min":0,"x_max":0,"o":"m 604 806 l 56 500 l 56 486 l 604 181 l 604 201 l 79 493 l 604 785 z m 56 67 l 604 67 l 604 85 l 56 85 z "},"±":{"ha":875,"x_min":0,"x_max":0,"o":"m 446 643 l 446 890 l 428 890 l 428 643 l 139 643 l 139 625 l 429 625 l 429 376 l 447 376 l 447 625 l 736 625 l 736 643 z m 139 193 l 736 194 l 736 213 l 139 211 z "},"≈":{"ha":886,"x_min":0,"x_max":0,"o":"m 125 564 l 146 564 b 288 686 160 638 217 686 b 610 550 408 686 478 550 b 761 690 686 550 747 606 l 743 690 b 610 568 729 617 675 568 b 288 704 490 568 418 704 b 125 564 206 704 140 649 z m 125 314 l 146 314 b 288 436 160 388 217 436 b 610 300 408 436 478 300 b 761 440 686 300 747 356 l 743 440 b 610 318 729 367 675 318 b 288 454 490 318 418 454 b 125 314 206 454 140 399 z "},"~":{"ha":886,"x_min":0,"x_max":0,"o":"m 125 439 l 146 439 b 288 561 160 513 217 561 b 610 425 408 561 478 425 b 761 565 686 425 747 481 l 743 565 b 610 443 729 492 675 443 b 288 579 490 443 418 579 b 125 439 206 579 140 524 z "},"¬":{"ha":1001,"x_min":0,"x_max":0,"o":"m 846 344 l 863 344 l 861 643 l 139 643 l 139 625 l 844 625 z "},"∞":{"ha":1075,"x_min":0,"x_max":0,"o":"m 764 693 b 964 496 888 693 964 618 b 764 299 964 374 888 299 b 538 482 675 299 607 358 b 310 299 463 358 393 299 b 111 496 188 299 111 374 b 310 693 111 618 188 693 b 538 510 396 693 467 633 b 764 693 607 633 675 693 z m 310 317 b 525 496 389 317 454 379 b 310 675 457 617 392 675 b 132 496 200 675 132 607 b 310 317 132 385 200 317 z m 764 317 b 943 496 875 317 943 385 b 764 675 943 607 875 675 b 549 496 681 675 617 617 b 764 317 619 375 685 317 z "},"∫":{"ha":775,"x_min":0,"x_max":0,"o":"m 117 -228 b 350 -6 240 -228 335 -139 l 449 861 b 660 1092 464 1001 535 1092 b 775 1065 694 1092 747 1081 l 775 1085 b 660 1111 751 1100 700 1111 b 426 861 522 1111 443 1013 l 328 -6 b 117 -208 314 -128 228 -208 b 0 -194 78 -208 33 -204 l 0 -215 b 117 -228 26 -224 71 -228 z "},"∏":{"ha":903,"x_min":0,"x_max":0,"o":"m 188 -167 l 208 -167 l 208 968 l 694 968 l 694 -167 l 715 -167 l 715 968 l 889 968 l 889 986 l 14 986 l 14 968 l 188 968 z "},"∑":{"ha":764,"x_min":0,"x_max":0,"o":"m 28 -167 l 722 -167 l 722 -149 l 56 -149 l 449 408 l 449 411 l 56 968 l 722 968 l 722 986 l 28 986 l 28 974 l 426 410 l 28 -154 z "},"√":{"ha":783,"x_min":0,"x_max":0,"o":"m 389 -14 l 404 -14 l 783 1111 l 764 1111 l 396 21 l 197 518 l 22 518 l 22 500 l 183 500 z "},"µ":{"ha":846,"x_min":0,"x_max":0,"o":"m 700 0 b 672 301 682 81 672 182 l 672 736 l 651 736 l 651 375 b 386 6 651 190 561 6 b 174 257 251 6 174 81 l 174 736 l 153 736 l 153 -278 l 175 -278 l 168 136 b 386 -14 199 32 274 -14 b 654 263 522 -14 625 92 b 679 0 654 147 668 58 z "},"∂":{"ha":788,"x_min":0,"x_max":0,"o":"m 388 1000 b 192 950 319 1000 242 981 l 192 928 b 382 981 249 960 313 981 b 663 619 563 981 663 843 b 647 431 663 556 658 492 b 385 629 618 554 519 629 b 56 246 181 629 56 483 b 303 -14 56 85 150 -14 b 683 618 539 -14 683 238 b 388 1000 683 856 576 1000 z m 300 6 b 79 247 163 6 79 97 b 388 610 79 472 196 610 b 642 396 517 610 613 529 b 300 6 600 181 492 6 z "},"%":{"ha":1010,"x_min":0,"x_max":0,"o":"m 261 493 b 425 747 376 493 425 569 b 261 1000 425 924 376 1000 b 97 747 147 1000 97 924 b 261 493 97 569 147 493 z m 99 0 l 125 0 l 911 986 l 886 986 z m 261 510 b 117 747 160 510 117 581 b 261 983 117 913 160 983 b 406 747 363 983 406 913 b 261 510 406 581 363 510 z m 749 -14 b 913 240 864 -14 913 63 b 749 493 913 417 864 493 b 585 240 635 493 585 417 b 749 -14 585 63 635 -14 z m 749 3 b 604 240 647 3 604 74 b 749 476 604 406 647 476 b 893 240 850 476 893 406 b 749 3 893 74 850 3 z "},"‰":{"ha":1468,"x_min":0,"x_max":0,"o":"m 275 493 b 453 747 400 493 453 569 b 275 1000 453 924 400 1000 b 97 747 151 1000 97 924 b 275 493 97 569 151 493 z m 113 0 l 139 0 l 925 986 l 900 986 z m 275 510 b 117 747 164 510 117 581 b 275 983 117 913 164 983 b 433 747 386 983 433 913 b 275 510 433 581 386 510 z m 763 -14 b 940 240 888 -14 940 63 b 763 493 940 417 888 493 b 585 240 639 493 585 417 b 763 -14 585 63 639 -14 z m 1193 -14 b 1371 240 1318 -14 1371 63 b 1193 493 1371 417 1318 493 b 1015 240 1069 493 1015 417 b 1193 -14 1015 63 1069 -14 z m 763 3 b 604 240 651 3 604 74 b 763 476 604 406 651 476 b 921 240 874 476 921 406 b 763 3 921 74 874 3 z m 1193 3 b 1035 240 1082 3 1035 74 b 1193 476 1035 406 1082 476 b 1351 240 1304 476 1351 406 b 1193 3 1351 74 1304 3 z "},"◊":{"ha":782,"x_min":0,"x_max":0,"o":"m 399 1000 l 383 1000 l 97 457 l 383 -86 l 399 -86 l 685 457 z m 118 458 l 392 976 l 665 457 l 392 -61 z "},"@":{"ha":1188,"x_min":0,"x_max":0,"o":"m 638 -149 b 1024 -28 789 -149 914 -110 l 1014 -12 b 638 -129 899 -94 782 -129 b 135 367 288 -129 135 44 b 617 885 135 697 308 885 b 1054 463 897 885 1054 732 b 876 149 1054 261 1010 149 b 757 276 803 149 747 204 l 803 635 l 786 635 l 769 518 b 615 636 758 589 700 636 b 396 324 467 636 396 539 b 565 133 396 194 450 133 b 739 243 667 133 713 174 b 875 129 736 185 799 129 b 1076 463 1024 129 1076 249 b 617 904 1076 746 911 904 b 111 367 293 904 111 711 b 638 -149 111 32 272 -149 z m 565 153 b 418 324 465 153 418 207 b 611 618 418 526 479 618 b 757 438 707 618 772 558 l 743 332 b 565 153 725 199 663 153 z "},"&":{"ha":869,"x_min":0,"x_max":0,"o":"m 869 0 l 704 160 b 789 488 758 244 789 356 l 769 488 b 690 174 769 361 742 254 l 293 557 b 188 779 213 635 188 703 b 411 981 188 908 282 981 b 644 715 561 981 644 885 l 664 715 b 411 1000 664 897 572 1000 b 165 779 267 1000 165 914 b 269 553 165 704 189 635 b 69 253 126 488 69 403 b 394 -12 69 83 200 -12 b 693 142 519 -12 624 44 l 840 0 z m 394 7 b 92 253 214 7 92 96 b 285 538 92 393 146 474 l 679 156 b 394 7 613 61 514 7 z "},"¶":{"ha":733,"x_min":0,"x_max":0,"o":"m 28 719 b 310 451 28 558 140 451 l 310 -167 l 331 -167 l 331 968 l 518 968 l 518 -167 l 539 -167 l 539 986 l 310 986 b 28 719 140 986 28 879 z "},"§":{"ha":833,"x_min":0,"x_max":0,"o":"m 736 242 l 756 242 b 438 521 756 426 594 475 b 153 756 293 563 153 604 b 432 981 153 904 247 981 b 715 715 619 981 715 890 l 736 715 b 432 1000 736 903 632 1000 b 132 756 235 1000 132 917 b 433 500 132 589 283 544 b 736 242 585 457 736 413 z m 440 -278 b 756 -22 649 -278 756 -190 b 438 257 756 163 594 211 b 153 492 293 299 153 340 l 132 492 b 433 236 132 325 283 281 b 736 -22 585 192 736 149 b 440 -258 736 -178 635 -258 b 124 47 232 -258 124 -154 l 104 47 b 440 -278 104 -167 218 -278 z "},"©":{"ha":1206,"x_min":0,"x_max":0,"o":"m 603 -14 b 1088 493 893 -14 1088 189 b 603 1000 1088 797 893 1000 b 118 493 313 1000 118 797 b 603 -14 118 189 313 -14 z m 603 3 b 140 493 325 3 140 199 b 603 983 140 788 325 983 b 1065 493 879 983 1065 788 b 603 3 1065 199 879 3 z m 607 197 b 824 386 726 197 804 265 l 803 386 b 607 214 786 276 717 214 b 396 489 472 214 396 313 b 607 764 396 665 472 764 b 800 592 714 764 783 701 l 819 592 b 607 781 803 713 726 781 b 375 489 458 781 375 675 b 607 197 375 303 458 197 z "},"®":{"ha":675,"x_min":0,"x_max":0,"o":"m 338 1000 b 49 701 153 1000 49 888 b 338 403 49 515 153 403 b 626 701 522 403 626 515 b 338 1000 626 888 522 1000 z m 338 419 b 69 701 165 419 69 525 b 338 983 69 878 165 983 b 606 701 510 983 606 878 b 338 419 606 525 510 419 z m 468 790 b 335 899 468 865 428 899 l 233 899 l 233 504 l 251 504 l 251 679 l 335 679 l 356 679 l 469 504 l 489 504 l 375 682 b 468 790 439 690 468 724 z m 251 696 l 251 882 l 335 882 b 450 790 415 882 450 854 b 335 696 450 724 415 696 z "},"™":{"ha":906,"x_min":0,"x_max":0,"o":"m 149 560 l 167 560 l 167 971 l 315 971 l 315 986 l 0 986 l 0 971 l 149 971 z m 369 560 l 386 560 l 438 957 l 588 560 l 604 560 l 753 958 l 806 560 l 822 560 l 768 986 l 747 986 l 596 583 l 444 986 l 424 986 z "},"°":{"ha":500,"x_min":0,"x_max":0,"o":"m 250 614 b 444 808 367 614 444 692 b 250 1000 444 924 367 1000 b 56 808 133 1000 56 924 b 250 614 56 692 133 614 z m 250 631 b 75 808 144 631 75 701 b 250 983 75 914 144 983 b 425 808 356 983 425 914 b 250 631 425 701 356 631 z "},"|":{"ha":410,"x_min":0,"x_max":0,"o":"m 194 -278 l 215 -278 l 215 1111 l 194 1111 z "},"¦":{"ha":407,"x_min":0,"x_max":0,"o":"m 194 528 l 213 528 l 213 1111 l 194 1111 z m 194 -278 l 213 -278 l 213 306 l 194 306 z "},"†":{"ha":660,"x_min":0,"x_max":0,"o":"m 632 736 l 340 736 l 340 1056 l 319 1056 l 319 736 l 28 736 l 28 718 l 319 718 l 319 -167 l 340 -167 l 340 718 l 632 718 z "},"‡":{"ha":660,"x_min":0,"x_max":0,"o":"m 632 718 l 632 736 l 340 736 l 340 1056 l 319 1056 l 319 736 l 28 736 l 28 718 l 319 718 l 319 185 l 28 185 l 28 167 l 319 167 l 319 -167 l 340 -167 l 340 167 l 632 167 l 632 185 l 340 185 l 340 718 z "},"^":{"ha":711,"x_min":0,"x_max":0,"o":"m 83 522 l 106 522 l 356 969 l 607 522 l 628 522 l 360 1000 l 351 1000 z "},"̈":{"ha":0,"x_min":0,"x_max":0,"o":"m -425 893 l -403 893 l -403 1056 l -425 1056 z m -203 893 l -181 893 l -181 1056 l -203 1056 z "},"̇":{"ha":0,"x_min":0,"x_max":0,"o":"m -203 893 l -181 893 l -181 1056 l -203 1056 z "},"̀":{"ha":0,"x_min":0,"x_max":0,"o":"m -203 893 l -181 893 l -340 1056 l -368 1056 z "},"́":{"ha":0,"x_min":0,"x_max":0,"o":"m -368 893 l -346 893 l -181 1056 l -208 1056 z "},"̋":{"ha":0,"x_min":0,"x_max":0,"o":"m -451 893 l -429 893 l -319 1056 l -347 1056 z m -312 893 l -290 893 l -181 1056 l -208 1056 z "},"̂":{"ha":0,"x_min":0,"x_max":0,"o":"m -528 893 l -506 893 l -354 1042 l -203 893 l -181 893 l -347 1063 l -361 1063 z "},"̌":{"ha":0,"x_min":0,"x_max":0,"o":"m -361 893 l -347 893 l -181 1063 l -203 1063 l -354 914 l -506 1063 l -528 1063 z "},"̆":{"ha":0,"x_min":0,"x_max":0,"o":"m -354 886 b -181 1056 -246 886 -181 950 l -197 1056 b -354 904 -197 961 -257 904 b -510 1056 -450 904 -510 961 l -528 1056 b -354 886 -528 950 -462 886 z "},"̊":{"ha":0,"x_min":0,"x_max":0,"o":"m -321 825 b -181 967 -236 825 -181 882 b -321 1107 -181 1051 -236 1107 b -462 967 -406 1107 -462 1051 b -321 825 -462 882 -406 825 z m -321 843 b -442 967 -393 844 -442 893 b -321 1090 -442 1040 -393 1090 b -201 967 -250 1090 -201 1040 b -321 843 -201 893 -250 844 z "},"̃":{"ha":0,"x_min":0,"x_max":0,"o":"m -528 939 b -450 993 -521 971 -489 993 b -276 939 -387 993 -347 939 b -181 1010 -226 939 -187 967 l -196 1010 b -272 956 -203 978 -233 956 b -447 1010 -335 956 -376 1010 b -543 939 -497 1010 -536 982 z "},"̄":{"ha":0,"x_min":0,"x_max":0,"o":"m -571 967 l -181 967 l -181 982 l -571 982 z "},"̒":{"ha":0,"x_min":0,"x_max":0,"o":"m -210 893 l -182 893 l -181 1056 l -196 1056 l -181 1168 l -192 1168 l -210 1056 z "},"̦":{"ha":0,"x_min":0,"x_max":0,"o":"m -210 -368 l -199 -368 l -181 -256 l -181 -93 l -208 -93 l -210 -256 l -194 -256 z "},"̧":{"ha":0,"x_min":0,"x_max":0,"o":"m -319 -75 l -283 0 l -304 0 l -343 -82 l -336 -92 b -201 -183 -247 -99 -201 -131 b -301 -260 -201 -235 -246 -260 b -428 -207 -346 -260 -394 -242 l -436 -222 b -303 -278 -406 -258 -353 -278 b -181 -182 -239 -278 -181 -249 b -319 -75 -181 -122 -226 -86 z "},"̨":{"ha":0,"x_min":0,"x_max":0,"o":"m -282 -250 b -181 -222 -247 -250 -207 -239 l -181 -207 b -283 -232 -208 -222 -249 -232 b -378 -156 -340 -232 -378 -201 b -208 0 -378 -83 -310 -21 l -214 15 b -399 -157 -325 -6 -399 -75 b -282 -250 -399 -212 -351 -250 z "},"̵":{"ha":0,"x_min":0,"x_max":0,"o":"m -710 411 l -181 411 l -181 426 l -710 426 z "},"̶":{"ha":0,"x_min":0,"x_max":0,"o":"m -1182 411 l -181 411 l -181 426 l -1182 426 z "},"̷":{"ha":0,"x_min":0,"x_max":0,"o":"m -569 303 l -181 465 l -181 486 l -569 324 z "},"̸":{"ha":0,"x_min":0,"x_max":0,"o":"m -900 -56 l -875 -56 l -181 1042 l -206 1042 z "},"´":{"ha":833,"x_min":0,"x_max":0,"o":"m 181 893 l 203 893 l 368 1056 l 340 1056 z "},"˘":{"ha":833,"x_min":0,"x_max":0,"o":"m 354 886 b 528 1056 463 886 528 950 l 511 1056 b 354 904 511 961 451 904 b 199 1056 258 904 199 961 l 181 1056 b 354 886 181 950 246 886 z "},"ˇ":{"ha":833,"x_min":0,"x_max":0,"o":"m 347 893 l 361 893 l 528 1063 l 506 1063 l 354 914 l 203 1063 l 181 1063 z "},"¸":{"ha":833,"x_min":0,"x_max":0,"o":"m 297 -75 l 333 0 l 313 0 l 274 -82 l 281 -92 b 415 -183 369 -99 415 -131 b 315 -260 415 -235 371 -260 b 189 -207 271 -260 222 -242 l 181 -222 b 314 -278 211 -258 264 -278 b 436 -182 378 -278 436 -249 b 297 -75 436 -122 390 -86 z "},"ˆ":{"ha":833,"x_min":0,"x_max":0,"o":"m 181 893 l 203 893 l 354 1042 l 506 893 l 528 893 l 361 1063 l 347 1063 z "},"¨":{"ha":833,"x_min":0,"x_max":0,"o":"m 181 893 l 203 893 l 203 1056 l 181 1056 z m 403 893 l 425 893 l 425 1056 l 403 1056 z "},"˙":{"ha":833,"x_min":0,"x_max":0,"o":"m 181 893 l 203 893 l 203 1056 l 181 1056 z "},"`":{"ha":833,"x_min":0,"x_max":0,"o":"m 346 893 l 368 893 l 208 1056 l 181 1056 z "},"˝":{"ha":833,"x_min":0,"x_max":0,"o":"m 181 893 l 203 893 l 313 1056 l 285 1056 z m 319 893 l 342 893 l 451 1056 l 424 1056 z "},"¯":{"ha":833,"x_min":0,"x_max":0,"o":"m 181 967 l 571 967 l 571 982 l 181 982 z "},"˛":{"ha":833,"x_min":0,"x_max":0,"o":"m 297 -250 b 399 -222 332 -250 372 -239 l 399 -207 b 296 -232 371 -222 331 -232 b 201 -156 239 -232 201 -201 b 371 0 201 -83 269 -21 l 365 15 b 181 -157 254 -6 181 -75 b 297 -250 181 -212 228 -250 z "},"˚":{"ha":833,"x_min":0,"x_max":0,"o":"m 322 825 b 463 967 407 825 463 882 b 322 1107 463 1051 407 1107 b 181 967 238 1107 181 1051 b 322 825 181 882 238 825 z m 322 843 b 201 967 250 844 201 893 b 322 1090 201 1040 250 1090 b 442 967 393 1090 442 1040 b 322 843 442 893 393 844 z "},"˜":{"ha":833,"x_min":0,"x_max":0,"o":"m 196 939 b 274 993 203 971 235 993 b 447 939 336 993 376 939 b 543 1010 497 939 536 967 l 528 1010 b 451 956 521 978 490 956 b 276 1010 389 956 347 1010 b 181 939 226 1010 188 982 z "}}}
